<svg xmlns="http://www.w3.org/2000/svg" version="1.1" xmlns:xlink="http://www.w3.org/1999/xlink" xmlns:svgjs="http://svgjs.dev/svgjs" width="1000" height="202" viewBox="0 0 1000 202"><g transform="matrix(1,0,0,1,-0.6060606060606233,0.12187545853076642)"><svg viewBox="0 0 396 80" data-background-color="#000000" preserveAspectRatio="xMidYMid meet" height="202" width="1000" xmlns="http://www.w3.org/2000/svg" xmlns:xlink="http://www.w3.org/1999/xlink"><g id="tight-bounds" transform="matrix(1,0,0,1,0.2400000000000091,-0.04826750832901894)"><svg viewBox="0 0 395.52 80.09644671253416" height="80.09644671253416" width="395.52"><g><svg viewBox="0 0 510.05028858618596 103.28988612574868" height="80.09644671253416" width="395.52"><g transform="matrix(1,0,0,1,114.53028858618596,14.275230282212739)"><svg viewBox="0 0 395.52 74.7394255613232" height="74.7394255613232" width="395.52"><g><svg viewBox="0 0 395.52 74.7394255613232" height="74.7394255613232" width="395.52"><g><svg viewBox="0 0 395.52 47.61349082684091" height="47.61349082684091" width="395.52"><g transform="matrix(1,0,0,1,0,0)"><svg width="395.52" viewBox="2.6 -37.15 397.85999999999996 47.9" height="47.61349082684091" data-palette-color="#ffffff"><path d="M28.8-10.05L24.55 0 18.3 0 14.15-9.6Q14-10 13.58-11.08 13.15-12.15 12.63-13.53 12.1-14.9 11.55-16.35 11-17.8 10.55-19L10.55-19Q10.55-17.7 10.55-16 10.55-14.3 10.55-12.55 10.55-10.8 10.53-9.25 10.5-7.7 10.45-6.8L10.45-6.8 10.2 0 2.6 0 4.6-33.85 11.7-33.85 19.5-14.35Q19.85-13.45 20.43-11.83 21-10.2 21.55-8.3L21.55-8.3Q22.1-10.15 22.68-11.78 23.25-13.4 23.65-14.35L23.65-14.35 31.45-33.85 38.4-33.85 40.4 0 32.65 0 32.35-6.8Q32.3-7.75 32.27-9.3 32.25-10.85 32.25-12.58 32.25-14.3 32.27-16.03 32.3-17.75 32.3-19L32.3-19Q31.9-17.95 31.43-16.63 30.95-15.3 30.45-14.05 29.95-12.8 29.5-11.73 29.05-10.65 28.8-10.05L28.8-10.05ZM66.95-25.1L66.75-11.55Q66.75-9.95 67.02-8.58 67.3-7.2 67.65-5.88 68-4.55 68.3-3.15 68.6-1.75 68.6-0.15L68.6-0.15Q68.6 5.1 65.65 7.93 62.7 10.75 57.6 10.75L57.6 10.75Q55.3 10.75 52.8 10.2 50.3 9.65 47.9 8.65L47.9 8.65 49.75 2.55Q51.95 3.3 53.6 3.73 55.25 4.15 57.1 4.15L57.1 4.15Q59.1 4.15 60.32 3 61.55 1.85 61.55-0.3L61.55-0.3Q61.55-1.3 61.4-2.13 61.25-2.95 60.85-3.95L60.85-3.95Q59.55-1.7 57.3-0.7 55.05 0.3 52.45 0.3L52.45 0.3Q50.5 0.3 49.12-0.33 47.75-0.95 46.87-2.08 46-3.2 45.62-4.8 45.25-6.4 45.25-8.4L45.25-8.4 45.25-25.1 53.2-25.1 53.2-9.45Q53.2-7.7 53.62-6.63 54.05-5.55 55.2-5.55L55.2-5.55Q55.85-5.55 56.52-6.03 57.2-6.5 57.75-7.38 58.3-8.25 58.65-9.5 59-10.75 59-12.3L59-12.3 59-25.1 66.95-25.1ZM72.64 0L72.64-33.85 94.2-33.85 94.2-27.85 80.9-27.85 80.9-20.1 92.05-20.1 91.05-14.15 80.9-14.15 80.9 0 72.64 0ZM115.44-24L115.44-12.05Q115.44-9.05 115.84-7.05 116.24-5.05 116.79-3.85L116.79-3.85Q117.39-2.4 118.19-1.6L118.19-1.6 111.84 0.4Q111.29-0.1 110.84-0.85L110.84-0.85Q110.44-1.5 110.07-2.43 109.69-3.35 109.44-4.6L109.44-4.6Q108.59-2.25 106.94-0.98 105.29 0.3 102.59 0.3L102.59 0.3Q100.14 0.3 98.32-0.6 96.49-1.5 95.29-3.13 94.09-4.75 93.52-7.05 92.94-9.35 92.94-12.15L92.94-12.15Q92.94-15 93.87-17.45 94.79-19.9 96.44-21.68 98.09-23.45 100.39-24.45 102.69-25.45 105.49-25.45L105.49-25.45Q107.04-25.45 108.79-25.23 110.54-25 111.99-24.73 113.44-24.45 114.42-24.23 115.39-24 115.44-24L115.44-24ZM103.89-5.5Q104.64-5.5 105.32-6.15 105.99-6.8 106.49-7.9 106.99-9 107.27-10.43 107.54-11.85 107.54-13.45L107.54-13.45 107.54-19.25Q107.19-19.4 106.57-19.53 105.94-19.65 105.49-19.65L105.49-19.65Q104.29-19.65 103.49-19.13 102.69-18.6 102.22-17.68 101.74-16.75 101.54-15.45 101.34-14.15 101.34-12.65L101.34-12.65Q101.34-11.25 101.39-9.98 101.44-8.7 101.72-7.7 101.99-6.7 102.49-6.1 102.99-5.5 103.89-5.5L103.89-5.5ZM134.69-25.1L142.59-25.1Q142.79-24.3 142.99-22.5 143.19-20.7 143.19-18.75L143.19-18.75Q143.19-13.55 142.37-9.93 141.54-6.3 139.89-4.03 138.24-1.75 135.72-0.73 133.19 0.3 129.74 0.3L129.74 0.3Q125.44 0.3 123.42-2.15 121.39-4.6 121.39-8.65L121.39-8.65 121.39-25.1 129.29-25.1 129.29-8.8Q129.29-7.35 129.69-6.33 130.09-5.3 131.09-5.3L131.09-5.3Q132.29-5.3 133.09-6.48 133.89-7.65 134.37-9.53 134.84-11.4 135.06-13.73 135.29-16.05 135.29-18.35L135.29-18.35Q135.29-20.85 135.06-22.48 134.84-24.1 134.69-25.1L134.69-25.1ZM158.24-25.6Q164.19-25.6 166.91-22.2 169.64-18.8 169.64-12.8L169.64-12.8Q169.64-9.95 168.91-7.53 168.19-5.1 166.71-3.33 165.24-1.55 163.01-0.53 160.79 0.5 157.84 0.5L157.84 0.5Q154.84 0.5 152.66-0.38 150.49-1.25 149.11-2.9 147.74-4.55 147.06-6.93 146.39-9.3 146.39-12.25L146.39-12.25Q146.39-15.1 147.11-17.55 147.84-20 149.31-21.78 150.79-23.55 153.01-24.58 155.24-25.6 158.24-25.6L158.24-25.6ZM157.79-19.65Q156.89-19.65 156.29-19.13 155.69-18.6 155.36-17.68 155.04-16.75 154.91-15.5 154.79-14.25 154.79-12.8L154.79-12.8Q154.79-11.3 154.94-9.95 155.09-8.6 155.46-7.6 155.84-6.6 156.54-6.03 157.24-5.45 158.29-5.45L158.29-5.45Q159.19-5.45 159.79-6 160.39-6.55 160.71-7.48 161.04-8.4 161.16-9.65 161.29-10.9 161.29-12.3L161.29-12.3Q161.29-13.85 161.14-15.18 160.99-16.5 160.61-17.5 160.24-18.5 159.54-19.07 158.84-19.65 157.79-19.65L157.79-19.65ZM186.39-17.9Q185.84-17.9 185.19-17.6 184.54-17.3 183.94-16.68 183.34-16.05 182.94-15.08 182.54-14.1 182.54-12.75L182.54-12.75 182.54 0 174.64 0 174.64-13Q174.64-16 174.21-17.98 173.79-19.95 173.24-21.2L173.24-21.2Q172.64-22.6 171.89-23.45L171.89-23.45 178.24-25.45Q178.64-24.95 179.09-24.3L179.09-24.3Q179.44-23.75 179.84-22.9 180.24-22.05 180.49-20.95L180.49-20.95Q181.74-23.35 183.46-24.4 185.19-25.45 187.54-25.45L187.54-25.45Q188.59-25.45 189.41-25.28 190.24-25.1 190.79-24.9L190.79-24.9 188.74-17.35Q188.39-17.55 187.81-17.73 187.24-17.9 186.39-17.9L186.39-17.9ZM199.88 0.2Q197.03 0.2 195.28-1.28 193.53-2.75 193.53-5.45L193.53-5.45 193.53-25.1 201.43-25.1 201.43-7.7Q201.43-6.55 201.78-6.15 202.13-5.75 202.83-5.75L202.83-5.75Q203.23-5.75 203.63-5.83 204.03-5.9 204.13-5.95L204.13-5.95 204.83-1Q204.78-0.95 204.38-0.78 203.98-0.6 203.33-0.38 202.68-0.15 201.78 0.03 200.88 0.2 199.88 0.2L199.88 0.2ZM197.58-37.15Q199.68-37.15 200.78-35.9 201.88-34.65 201.88-32.75L201.88-32.75Q201.88-30.8 200.76-29.5 199.63-28.2 197.38-28.2L197.38-28.2Q195.28-28.2 194.16-29.48 193.03-30.75 193.03-32.5L193.03-32.5Q193.03-34.5 194.18-35.83 195.33-37.15 197.58-37.15L197.58-37.15ZM205.48-19.1L205.48-24.9 209.58-24.9 210.43-30.05 217.28-31.55 217.28-24.9 223.18-24.9 222.23-19.1 217.28-19.1 217.28-7.95Q217.28-5.75 219.58-5.75L219.58-5.75Q220.83-5.75 221.98-6L221.98-6Q222.58-6.15 223.18-6.3L223.18-6.3 224.53-1Q223.53-0.65 221.76-0.23 219.98 0.2 217.43 0.2L217.43 0.2Q213.68 0.2 211.56-1.35 209.43-2.9 209.43-6.6L209.43-6.6 209.43-19.1 205.48-19.1ZM225.18-11.85Q225.18-15.2 226.15-17.78 227.13-20.35 228.85-22.08 230.58-23.8 232.88-24.7 235.18-25.6 237.88-25.6L237.88-25.6Q240.23-25.6 241.88-25.03 243.53-24.45 244.58-23.43 245.63-22.4 246.13-21.03 246.63-19.65 246.63-18.05L246.63-18.05Q246.63-16.25 245.73-14.65 244.83-13.05 243.15-11.83 241.48-10.6 239.1-9.8 236.73-9 233.73-8.75L233.73-8.75Q234.08-7.25 235-6.33 235.93-5.4 237.83-5.4L237.83-5.4Q238.93-5.4 240.18-5.65 241.43-5.9 242.48-6.2L242.48-6.2Q243.73-6.55 244.93-7L244.93-7 246.43-1.8Q245.08-1.15 243.48-0.65L243.48-0.65Q242.13-0.25 240.35 0.1 238.58 0.45 236.58 0.45L236.58 0.45Q233.53 0.45 231.35-0.45 229.18-1.35 227.8-2.95 226.43-4.55 225.8-6.83 225.18-9.1 225.18-11.85L225.18-11.85ZM236.88-19.95Q235.93-19.95 235.25-19.4 234.58-18.85 234.18-17.95 233.78-17.05 233.58-15.95 233.38-14.85 233.33-13.8L233.33-13.8Q234.83-13.85 235.85-14.25 236.88-14.65 237.53-15.25 238.18-15.85 238.48-16.55 238.78-17.25 238.78-17.85L238.78-17.85Q238.78-18.8 238.25-19.38 237.73-19.95 236.88-19.95L236.88-19.95ZM276.33-10.05L272.08 0 265.83 0 261.68-9.6Q261.53-10 261.1-11.08 260.68-12.15 260.15-13.53 259.63-14.9 259.08-16.35 258.53-17.8 258.08-19L258.08-19Q258.08-17.7 258.08-16 258.08-14.3 258.08-12.55 258.08-10.8 258.05-9.25 258.03-7.7 257.98-6.8L257.98-6.8 257.73 0 250.13 0 252.13-33.85 259.23-33.85 267.03-14.35Q267.38-13.45 267.95-11.83 268.53-10.2 269.08-8.3L269.08-8.3Q269.63-10.15 270.2-11.78 270.78-13.4 271.18-14.35L271.18-14.35 278.98-33.85 285.93-33.85 287.93 0 280.18 0 279.88-6.8Q279.83-7.75 279.8-9.3 279.78-10.85 279.78-12.58 279.78-14.3 279.8-16.03 279.83-17.75 279.83-19L279.83-19Q279.43-17.95 278.95-16.63 278.48-15.3 277.98-14.05 277.48-12.8 277.03-11.73 276.58-10.65 276.33-10.05L276.33-10.05ZM303.42-25.6Q309.37-25.6 312.1-22.2 314.82-18.8 314.82-12.8L314.82-12.8Q314.82-9.95 314.1-7.53 313.37-5.1 311.9-3.33 310.42-1.55 308.2-0.53 305.97 0.5 303.02 0.5L303.02 0.5Q300.02 0.5 297.85-0.38 295.67-1.25 294.3-2.9 292.92-4.55 292.25-6.93 291.57-9.3 291.57-12.25L291.57-12.25Q291.57-15.1 292.3-17.55 293.02-20 294.5-21.78 295.97-23.55 298.2-24.58 300.42-25.6 303.42-25.6L303.42-25.6ZM302.97-19.65Q302.07-19.65 301.47-19.13 300.87-18.6 300.55-17.68 300.22-16.75 300.1-15.5 299.97-14.25 299.97-12.8L299.97-12.8Q299.97-11.3 300.12-9.95 300.27-8.6 300.65-7.6 301.02-6.6 301.72-6.03 302.42-5.45 303.47-5.45L303.47-5.45Q304.37-5.45 304.97-6 305.57-6.55 305.9-7.48 306.22-8.4 306.35-9.65 306.47-10.9 306.47-12.3L306.47-12.3Q306.47-13.85 306.32-15.18 306.17-16.5 305.8-17.5 305.42-18.5 304.72-19.07 304.02-19.65 302.97-19.65L302.97-19.65ZM332.12-25.1L340.02-25.1Q340.22-24.3 340.42-22.5 340.62-20.7 340.62-18.75L340.62-18.75Q340.62-13.55 339.8-9.93 338.97-6.3 337.32-4.03 335.67-1.75 333.15-0.73 330.62 0.3 327.17 0.3L327.17 0.3Q322.87 0.3 320.85-2.15 318.82-4.6 318.82-8.65L318.82-8.65 318.82-25.1 326.72-25.1 326.72-8.8Q326.72-7.35 327.12-6.33 327.52-5.3 328.52-5.3L328.52-5.3Q329.72-5.3 330.52-6.48 331.32-7.65 331.8-9.53 332.27-11.4 332.5-13.73 332.72-16.05 332.72-18.35L332.72-18.35Q332.72-20.85 332.5-22.48 332.27-24.1 332.12-25.1L332.12-25.1ZM351.42 0.2Q348.57 0.2 346.82-1.28 345.07-2.75 345.07-5.45L345.07-5.45 345.07-25.1 352.97-25.1 352.97-7.7Q352.97-6.55 353.32-6.15 353.67-5.75 354.37-5.75L354.37-5.75Q354.77-5.75 355.17-5.83 355.57-5.9 355.67-5.95L355.67-5.95 356.37-1Q356.32-0.95 355.92-0.78 355.52-0.6 354.87-0.38 354.22-0.15 353.32 0.03 352.42 0.2 351.42 0.2L351.42 0.2ZM349.12-37.15Q351.22-37.15 352.32-35.9 353.42-34.65 353.42-32.75L353.42-32.75Q353.42-30.8 352.29-29.5 351.17-28.2 348.92-28.2L348.92-28.2Q346.82-28.2 345.69-29.48 344.57-30.75 344.57-32.5L344.57-32.5Q344.57-34.5 345.72-35.83 346.87-37.15 349.12-37.15L349.12-37.15ZM358.07-11.85Q358.07-15.2 359.04-17.78 360.02-20.35 361.74-22.08 363.47-23.8 365.77-24.7 368.07-25.6 370.77-25.6L370.77-25.6Q373.12-25.6 374.77-25.03 376.42-24.45 377.47-23.43 378.52-22.4 379.02-21.03 379.52-19.65 379.52-18.05L379.52-18.05Q379.52-16.25 378.62-14.65 377.72-13.05 376.04-11.83 374.37-10.6 371.99-9.8 369.62-9 366.62-8.75L366.62-8.75Q366.97-7.25 367.89-6.33 368.82-5.4 370.72-5.4L370.72-5.4Q371.82-5.4 373.07-5.65 374.32-5.9 375.37-6.2L375.37-6.2Q376.62-6.55 377.82-7L377.82-7 379.32-1.8Q377.97-1.15 376.37-0.65L376.37-0.65Q375.02-0.25 373.24 0.1 371.47 0.45 369.47 0.45L369.47 0.45Q366.42 0.45 364.24-0.45 362.07-1.35 360.69-2.95 359.32-4.55 358.69-6.83 358.07-9.1 358.07-11.85L358.07-11.85ZM369.77-19.95Q368.82-19.95 368.14-19.4 367.47-18.85 367.07-17.95 366.67-17.05 366.47-15.95 366.27-14.85 366.22-13.8L366.22-13.8Q367.72-13.85 368.74-14.25 369.77-14.65 370.42-15.25 371.07-15.85 371.37-16.55 371.67-17.25 371.67-17.85L371.67-17.85Q371.67-18.8 371.14-19.38 370.62-19.95 369.77-19.95L369.77-19.95ZM391.26-25.55L391.26-25.55Q393.16-25.55 394.79-25.23 396.41-24.9 397.66-24.5L397.66-24.5Q399.11-24 400.31-23.45L400.31-23.45 397.81-17.85Q397.41-18.05 396.79-18.35 396.16-18.65 395.44-18.95 394.71-19.25 393.91-19.45 393.11-19.65 392.36-19.65L392.36-19.65Q391.56-19.65 391.01-19.3 390.46-18.95 390.46-18.2L390.46-18.2Q390.46-17.4 391.49-16.63 392.51-15.85 394.21-15.15L394.21-15.15Q397.21-13.9 398.84-12.18 400.46-10.45 400.46-7.55L400.46-7.55Q400.46-5.95 399.89-4.48 399.31-3 398.19-1.9 397.06-0.8 395.36-0.15 393.66 0.5 391.46 0.5L391.46 0.5Q389.71 0.5 388.19 0.25 386.66 0 385.39-0.38 384.11-0.75 383.11-1.13 382.11-1.5 381.51-1.8L381.51-1.8 384.11-7.55Q384.36-7.45 384.99-7.1 385.61-6.75 386.44-6.4 387.26-6.05 388.19-5.78 389.11-5.5 389.96-5.5L389.96-5.5Q391.01-5.5 391.69-5.9 392.36-6.3 392.36-7.1L392.36-7.1Q392.36-8.05 391.54-8.8 390.71-9.55 389.41-10.05L389.41-10.05Q385.66-11.55 384.04-13.43 382.41-15.3 382.41-18.1L382.41-18.1Q382.41-19.7 383.01-21.05 383.61-22.4 384.76-23.4 385.91-24.4 387.54-24.98 389.16-25.55 391.26-25.55Z" opacity="1" transform="matrix(1,0,0,1,0,0)" fill="#ffffff" class="undefined-text-0" data-fill-palette-color="primary" id="text-0"></path></svg></g></svg></g><g transform="matrix(1,0,0,1,0,58.853893287278204)"><svg viewBox="0 0 395.52 15.885532274044989" height="15.885532274044989" width="395.52"><g transform="matrix(1,0,0,1,0,0)"><svg width="395.52" viewBox="5.37 -40.5 1330.5200000000002 53.44" height="15.885532274044989" data-palette-color="#ffffff"><path d="M5.37 0L5.37-38.16 13.11-38.16 36.89-25.71 36.89-38.16 44.63-38.16 44.63 0 36.89 0 36.89-17.5 13.11-29.88 13.11 0 5.37 0ZM53.15-14.5L53.15-14.5Q53.15-17.43 54.34-20.1 55.54-22.78 57.79-24.83 60.03-26.88 63.29-28.1 66.55-29.32 70.7-29.32L70.7-29.32Q74.83-29.32 78.13-28.09 81.44-26.86 83.75-24.71 86.06-22.56 87.29-19.65 88.52-16.75 88.52-13.43L88.52-13.43Q88.52-13.01 88.51-12.54 88.5-12.06 88.45-11.67L88.45-11.67 61.2-11.67Q61.67-10.38 62.71-9.3 63.74-8.23 65.31-7.45 66.87-6.67 68.92-6.24 70.97-5.81 73.46-5.81L73.46-5.81Q75.95-5.81 78.42-6.34 80.88-6.86 83.13-7.67L83.13-7.67 85.57-2.15Q84.15-1.49 82.7-0.99 81.25-0.49 79.67-0.16 78.1 0.17 76.38 0.34 74.66 0.51 72.75 0.51L72.75 0.51Q67.89 0.51 64.23-0.66 60.57-1.83 58.1-3.86 55.64-5.88 54.39-8.62 53.15-11.35 53.15-14.5ZM61.2-17.31L80.86-17.31Q80.47-18.51 79.65-19.54 78.83-20.58 77.61-21.35 76.39-22.12 74.78-22.56 73.17-23 71.24-23L71.24-23Q69.19-23 67.5-22.53 65.82-22.07 64.55-21.29 63.28-20.51 62.44-19.48 61.59-18.46 61.2-17.31L61.2-17.31ZM105.95 0L92.3-28.83 100.68-28.83 108.17-11.5 110.13-6.64 112.08-11.5 119.58-28.83 127.95-28.83 114.3 0 105.95 0ZM131.63-14.5L131.63-14.5Q131.63-17.43 132.83-20.1 134.03-22.78 136.27-24.83 138.52-26.88 141.78-28.1 145.04-29.32 149.19-29.32L149.19-29.32Q153.31-29.32 156.62-28.09 159.93-26.86 162.24-24.71 164.54-22.56 165.78-19.65 167.01-16.75 167.01-13.43L167.01-13.43Q167.01-13.01 167-12.54 166.98-12.06 166.94-11.67L166.94-11.67 139.69-11.67Q140.15-10.38 141.19-9.3 142.23-8.23 143.79-7.45 145.35-6.67 147.4-6.24 149.46-5.81 151.95-5.81L151.95-5.81Q154.44-5.81 156.9-6.34 159.37-6.86 161.61-7.67L161.61-7.67 164.06-2.15Q162.64-1.49 161.19-0.99 159.73-0.49 158.16-0.16 156.58 0.17 154.86 0.34 153.14 0.51 151.24 0.51L151.24 0.51Q146.38 0.51 142.72-0.66 139.06-1.83 136.59-3.86 134.12-5.88 132.88-8.62 131.63-11.35 131.63-14.5ZM139.69-17.31L159.34-17.31Q158.95-18.51 158.13-19.54 157.32-20.58 156.1-21.35 154.88-22.12 153.26-22.56 151.65-23 149.72-23L149.72-23Q147.67-23 145.99-22.53 144.3-22.07 143.03-21.29 141.76-20.51 140.92-19.48 140.08-18.46 139.69-17.31L139.69-17.31ZM174.77 0L174.77-28.81 182-28.81 182-24.66Q184.39-26.44 187.05-27.73 189.71-29.03 192.35-29.71L192.35-29.71 194.47-23.1Q190.3-22.68 187.14-21.23 183.97-19.78 182-17.14L182-17.14 182 0 174.77 0ZM217.34 0L217.34-38.16 251.47-38.16 251.47-31.37 225.08-31.37 225.08-21.39 247.49-21.39 247.49-15.01 225.08-15.01 225.08 0 217.34 0ZM256.31-14.4L256.31-14.4Q256.31-17.5 257.56-20.21 258.82-22.92 261.15-24.95 263.48-26.98 266.79-28.15 270.1-29.32 274.23-29.32L274.23-29.32Q278.35-29.32 281.66-28.15 284.97-26.98 287.3-24.95 289.63-22.92 290.89-20.21 292.15-17.5 292.15-14.4L292.15-14.4Q292.15-11.3 290.89-8.59 289.63-5.88 287.3-3.86 284.97-1.83 281.66-0.66 278.35 0.51 274.23 0.51L274.23 0.51Q270.1 0.51 266.79-0.66 263.48-1.83 261.15-3.86 258.82-5.88 257.56-8.59 256.31-11.3 256.31-14.4ZM263.9-14.4L263.9-14.4Q263.9-12.67 264.59-11.12 265.29-9.57 266.62-8.39 267.95-7.2 269.87-6.51 271.78-5.81 274.23-5.81L274.23-5.81Q276.67-5.81 278.58-6.51 280.5-7.2 281.83-8.39 283.16-9.57 283.86-11.12 284.55-12.67 284.55-14.4L284.55-14.4Q284.55-16.14 283.86-17.7 283.16-19.26 281.83-20.45 280.5-21.63 278.58-22.33 276.67-23.02 274.23-23.02L274.23-23.02Q271.78-23.02 269.87-22.33 267.95-21.63 266.62-20.45 265.29-19.26 264.59-17.7 263.9-16.14 263.9-14.4ZM299.44 0L299.44-28.81 306.67-28.81 306.67-24.66Q309.06-26.44 311.72-27.73 314.38-29.03 317.02-29.71L317.02-29.71 319.15-23.1Q314.97-22.68 311.81-21.23 308.65-19.78 306.67-17.14L306.67-17.14 306.67 0 299.44 0ZM326.34 10.99L329.03 4.88Q330.4 5.37 331.81 5.7 333.23 6.03 334.56 6.24 335.89 6.45 337.11 6.53 338.33 6.62 339.28 6.62L339.28 6.62Q342.17 6.62 344.3 5.92 346.44 5.22 347.87 4.05 349.29 2.88 350 1.33 350.71-0.22 350.71-1.95L350.71-1.95 350.71-3.2Q349.78-2.56 348.54-1.98 347.29-1.39 345.8-0.95 344.31-0.51 342.64-0.24 340.97 0.02 339.19 0.02L339.19 0.02Q335.65 0.02 332.64-1.04 329.64-2.1 327.44-4.02 325.25-5.93 324.01-8.62 322.78-11.3 322.78-14.58L322.78-14.58Q322.78-17.92 324.07-20.64 325.37-23.36 327.65-25.29 329.93-27.22 333.06-28.27 336.18-29.32 339.85-29.32L339.85-29.32Q341.41-29.32 342.95-29.13 344.48-28.93 345.89-28.59 347.29-28.25 348.52-27.77 349.76-27.29 350.71-26.73L350.71-26.73 350.71-28.81 357.94-28.81 357.94-3.3Q357.94 0.63 356.74 3.66 355.54 6.69 353.24 8.75 350.93 10.82 347.51 11.88 344.09 12.94 339.67 12.94L339.67 12.94Q338.09 12.94 336.38 12.81 334.67 12.67 332.95 12.41 331.23 12.16 329.56 11.8 327.88 11.45 326.34 10.99L326.34 10.99ZM330.37-14.65L330.37-14.65Q330.37-12.92 331.07-11.39 331.76-9.86 333.06-8.73 334.35-7.59 336.18-6.95 338.01-6.3 340.31-6.3L340.31-6.3Q341.8-6.3 343.28-6.58 344.75-6.86 346.11-7.37 347.46-7.89 348.65-8.62 349.83-9.35 350.71-10.25L350.71-10.25 350.71-19.75Q349.61-20.63 348.39-21.24 347.17-21.85 345.9-22.24 344.63-22.63 343.34-22.81 342.04-23 340.82-23L340.82-23Q338.33-23 336.39-22.34 334.45-21.68 333.12-20.54 331.79-19.41 331.08-17.9 330.37-16.38 330.37-14.65ZM364.79-14.5L364.79-14.5Q364.79-17.43 365.99-20.1 367.19-22.78 369.43-24.83 371.68-26.88 374.94-28.1 378.2-29.32 382.35-29.32L382.35-29.32Q386.47-29.32 389.78-28.09 393.09-26.86 395.4-24.71 397.7-22.56 398.94-19.65 400.17-16.75 400.17-13.43L400.17-13.43Q400.17-13.01 400.16-12.54 400.15-12.06 400.1-11.67L400.1-11.67 372.85-11.67Q373.31-10.38 374.35-9.3 375.39-8.23 376.95-7.45 378.52-6.67 380.57-6.24 382.62-5.81 385.11-5.81L385.11-5.81Q387.6-5.81 390.06-6.34 392.53-6.86 394.77-7.67L394.77-7.67 397.22-2.15Q395.8-1.49 394.35-0.99 392.89-0.49 391.32-0.16 389.75 0.17 388.02 0.34 386.3 0.51 384.4 0.51L384.4 0.51Q379.54 0.51 375.88-0.66 372.22-1.83 369.75-3.86 367.28-5.88 366.04-8.62 364.79-11.35 364.79-14.5ZM372.85-17.31L392.5-17.31Q392.11-18.51 391.3-19.54 390.48-20.58 389.26-21.35 388.04-22.12 386.43-22.56 384.81-23 382.89-23L382.89-23Q380.83-23 379.15-22.53 377.47-22.07 376.2-21.29 374.93-20.51 374.08-19.48 373.24-18.46 372.85-17.31L372.85-17.31ZM412.28 0L412.28-23.39 405.32-23.39 405.32-28.81 412.28-28.81 412.28-37.77 419.5-37.77 419.5-28.81 426.46-28.81 426.46-23.39 419.5-23.39 419.5 0 412.28 0ZM445.48 0L463.4-38.16 471.6-38.16 490.06 0 481.93 0 478.87-6.42 456.58-6.42 453.63 0 445.48 0ZM459.54-12.79L475.82-12.79 467.57-30.13 459.54-12.79ZM494.89 0L494.89-40.5 502.11-40.5 502.11-26.1Q503.07-26.76 504.36-27.34 505.65-27.93 507.14-28.37 508.63-28.81 510.22-29.06 511.81-29.32 513.39-29.32L513.39-29.32Q517.05-29.32 520.12-28.25 523.18-27.17 525.38-25.22 527.58-23.27 528.81-20.54 530.04-17.82 530.04-14.53L530.04-14.53Q530.04-11.08 528.75-8.31 527.46-5.54 525.17-3.58 522.89-1.61 519.75-0.55 516.62 0.51 512.95 0.51L512.95 0.51Q511.39 0.51 509.86 0.32 508.34 0.12 506.94-0.22 505.53-0.56 504.3-1.04 503.07-1.51 502.11-2.08L502.11-2.08 502.11 0 494.89 0ZM502.11-19.04L502.11-9.06Q503.21-8.18 504.43-7.57 505.65-6.96 506.92-6.57 508.19-6.18 509.49-5.99 510.78-5.81 512-5.81L512-5.81Q514.49-5.81 516.43-6.48 518.37-7.15 519.7-8.33 521.03-9.5 521.74-11.08 522.45-12.67 522.45-14.53L522.45-14.53Q522.45-16.26 521.75-17.8 521.06-19.34 519.75-20.5 518.45-21.66 516.6-22.33 514.76-23 512.47-23L512.47-23Q511-23 509.54-22.72 508.07-22.44 506.72-21.92 505.36-21.41 504.18-20.68 502.99-19.95 502.11-19.04L502.11-19.04ZM535-14.4L535-14.4Q535-17.5 536.25-20.21 537.51-22.92 539.84-24.95 542.17-26.98 545.48-28.15 548.79-29.32 552.92-29.32L552.92-29.32Q557.04-29.32 560.35-28.15 563.66-26.98 565.99-24.95 568.32-22.92 569.58-20.21 570.84-17.5 570.84-14.4L570.84-14.4Q570.84-11.3 569.58-8.59 568.32-5.88 565.99-3.86 563.66-1.83 560.35-0.66 557.04 0.51 552.92 0.51L552.92 0.51Q548.79 0.51 545.48-0.66 542.17-1.83 539.84-3.86 537.51-5.88 536.25-8.59 535-11.3 535-14.4ZM542.59-14.4L542.59-14.4Q542.59-12.67 543.29-11.12 543.98-9.57 545.31-8.39 546.64-7.2 548.56-6.51 550.48-5.81 552.92-5.81L552.92-5.81Q555.36-5.81 557.27-6.51 559.19-7.2 560.52-8.39 561.85-9.57 562.55-11.12 563.24-12.67 563.24-14.4L563.24-14.4Q563.24-16.14 562.55-17.7 561.85-19.26 560.52-20.45 559.19-21.63 557.27-22.33 555.36-23.02 552.92-23.02L552.92-23.02Q550.48-23.02 548.56-22.33 546.64-21.63 545.31-20.45 543.98-19.26 543.29-17.7 542.59-16.14 542.59-14.4ZM578.13-13.75L578.13-28.83 585.34-28.83 585.34-14.77Q585.34-12.77 585.78-11.12 586.21-9.47 587.28-8.3 588.34-7.13 590.11-6.48 591.88-5.83 594.52-5.83L594.52-5.83Q595.76-5.83 597.04-6.1 598.32-6.37 599.5-6.85 600.67-7.32 601.68-7.98 602.69-8.64 603.43-9.42L603.43-9.42 603.43-28.83 610.65-28.83 610.65 0 603.43 0 603.43-2.47Q600.77-0.88 598.08-0.2 595.39 0.49 592.98 0.49L592.98 0.49Q589.02 0.49 586.2-0.46 583.38-1.42 581.59-3.23 579.79-5.05 578.96-7.7 578.13-10.35 578.13-13.75L578.13-13.75ZM624.18 0L624.18-23.39 617.22-23.39 617.22-28.81 624.18-28.81 624.18-37.77 631.4-37.77 631.4-28.81 638.36-28.81 638.36-23.39 631.4-23.39 631.4 0 624.18 0ZM673.98 0L673.98-9.45 657.3-38.16 666.07-38.16 677.81-16.46 689.41-38.16 698.17-38.16 681.72-9.5 681.72 0 673.98 0ZM701.39-14.4L701.39-14.4Q701.39-17.5 702.65-20.21 703.91-22.92 706.24-24.95 708.57-26.98 711.88-28.15 715.18-29.32 719.31-29.32L719.31-29.32Q723.44-29.32 726.74-28.15 730.05-26.98 732.38-24.95 734.72-22.92 735.97-20.21 737.23-17.5 737.23-14.4L737.23-14.4Q737.23-11.3 735.97-8.59 734.72-5.88 732.38-3.86 730.05-1.83 726.74-0.66 723.44 0.51 719.31 0.51L719.31 0.51Q715.18 0.51 711.88-0.66 708.57-1.83 706.24-3.86 703.91-5.88 702.65-8.59 701.39-11.3 701.39-14.4ZM708.98-14.4L708.98-14.4Q708.98-12.67 709.68-11.12 710.37-9.57 711.71-8.39 713.04-7.2 714.95-6.51 716.87-5.81 719.31-5.81L719.31-5.81Q721.75-5.81 723.67-6.51 725.58-7.2 726.92-8.39 728.25-9.57 728.94-11.12 729.64-12.67 729.64-14.4L729.64-14.4Q729.64-16.14 728.94-17.7 728.25-19.26 726.92-20.45 725.58-21.63 723.67-22.33 721.75-23.02 719.31-23.02L719.31-23.02Q716.87-23.02 714.95-22.33 713.04-21.63 711.71-20.45 710.37-19.26 709.68-17.7 708.98-16.14 708.98-14.4ZM744.53-13.75L744.53-28.83 751.73-28.83 751.73-14.77Q751.73-12.77 752.17-11.12 752.61-9.47 753.67-8.3 754.73-7.13 756.5-6.48 758.27-5.83 760.91-5.83L760.91-5.83Q762.15-5.83 763.44-6.1 764.72-6.37 765.89-6.85 767.06-7.32 768.07-7.98 769.09-8.64 769.82-9.42L769.82-9.42 769.82-28.83 777.05-28.83 777.05 0 769.82 0 769.82-2.47Q767.16-0.88 764.47-0.2 761.79 0.49 759.37 0.49L759.37 0.49Q755.42 0.49 752.6-0.46 749.78-1.42 747.98-3.23 746.19-5.05 745.36-7.7 744.53-10.35 744.53-13.75L744.53-13.75ZM786.22 0L786.22-28.81 793.45-28.81 793.45-24.66Q795.84-26.44 798.5-27.73 801.17-29.03 803.8-29.71L803.8-29.71 805.93-23.1Q801.75-22.68 798.59-21.23 795.43-19.78 793.45-17.14L793.45-17.14 793.45 0 786.22 0ZM828.8 0L828.8-38.16 862.93-38.16 862.93-31.37 836.54-31.37 836.54-21.39 858.95-21.39 858.95-15.01 836.54-15.01 836.54 0 828.8 0ZM868.13-9.08L868.13-9.08Q868.13-11.16 869.03-12.87 869.93-14.58 871.74-15.81 873.55-17.04 876.24-17.71 878.94-18.38 882.53-18.38L882.53-18.38Q885.19-18.38 888.13-17.99 891.08-17.6 894.2-16.8L894.2-16.8Q894.08-18.16 893.37-19.32 892.66-20.48 891.4-21.33 890.15-22.17 888.38-22.63 886.61-23.1 884.36-23.1L884.36-23.1Q883.14-23.1 881.68-22.95 880.21-22.8 878.65-22.51 877.09-22.22 875.56-21.78 874.03-21.34 872.72-20.73L872.72-20.73 870.52-26.66Q872.15-27.25 874.02-27.73 875.89-28.22 877.84-28.58 879.8-28.93 881.75-29.13 883.7-29.32 885.53-29.32L885.53-29.32Q893.61-29.32 897.54-25.2 901.48-21.07 901.48-12.55L901.48-12.55 901.48 0 894.25 0 894.25-2.71Q893.13-2.05 891.8-1.46 890.46-0.88 888.9-0.44 887.34 0 885.55 0.26 883.75 0.51 881.75 0.51L881.75 0.51Q878.38 0.51 875.83-0.22 873.28-0.95 871.57-2.25 869.86-3.54 868.99-5.29 868.13-7.03 868.13-9.08ZM875.74-9.33L875.74-9.33Q875.74-8.62 876.11-7.97 876.48-7.32 877.28-6.82 878.09-6.32 879.34-6.02 880.6-5.71 882.38-5.71L882.38-5.71Q884.29-5.71 886.07-6.05 887.85-6.4 889.39-6.96 890.93-7.52 892.17-8.25 893.42-8.98 894.25-9.77L894.25-9.77 894.25-11.04Q892.59-11.5 890.97-11.82 889.34-12.13 887.86-12.32 886.39-12.5 885.08-12.57 883.78-12.65 882.8-12.65L882.8-12.65Q880.77-12.65 879.43-12.38 878.09-12.11 877.26-11.66 876.43-11.21 876.08-10.6 875.74-9.99 875.74-9.33ZM920.69 0L907.04-28.83 915.41-28.83 922.91-11.5 924.86-6.64 926.81-11.5 934.31-28.83 942.68-28.83 929.04 0 920.69 0ZM946-14.4L946-14.4Q946-17.5 947.26-20.21 948.52-22.92 950.85-24.95 953.18-26.98 956.49-28.15 959.8-29.32 963.92-29.32L963.92-29.32Q968.05-29.32 971.36-28.15 974.66-26.98 977-24.95 979.33-22.92 980.58-20.21 981.84-17.5 981.84-14.4L981.84-14.4Q981.84-11.3 980.58-8.59 979.33-5.88 977-3.86 974.66-1.83 971.36-0.66 968.05 0.51 963.92 0.51L963.92 0.51Q959.8 0.51 956.49-0.66 953.18-1.83 950.85-3.86 948.52-5.88 947.26-8.59 946-11.3 946-14.4ZM953.59-14.4L953.59-14.4Q953.59-12.67 954.29-11.12 954.99-9.57 956.32-8.39 957.65-7.2 959.56-6.51 961.48-5.81 963.92-5.81L963.92-5.81Q966.36-5.81 968.28-6.51 970.2-7.2 971.53-8.39 972.86-9.57 973.55-11.12 974.25-12.67 974.25-14.4L974.25-14.4Q974.25-16.14 973.55-17.7 972.86-19.26 971.53-20.45 970.2-21.63 968.28-22.33 966.36-23.02 963.92-23.02L963.92-23.02Q961.48-23.02 959.56-22.33 957.65-21.63 956.32-20.45 954.99-19.26 954.29-17.7 953.59-16.14 953.59-14.4ZM989.14 0L989.14-28.81 996.37-28.81 996.37-24.66Q998.76-26.44 1001.42-27.73 1004.08-29.03 1006.72-29.71L1006.72-29.71 1008.84-23.1Q1004.67-22.68 1001.5-21.23 998.34-19.78 996.37-17.14L996.37-17.14 996.37 0 989.14 0ZM1018.02-32.74L1018.02-32.74Q1016.94-32.74 1016.08-33.04 1015.21-33.35 1014.6-33.87 1013.99-34.4 1013.66-35.1 1013.33-35.79 1013.33-36.57L1013.33-36.57Q1013.33-37.38 1013.66-38.07 1013.99-38.77 1014.6-39.28 1015.21-39.79 1016.08-40.1 1016.94-40.41 1018.02-40.41L1018.02-40.41Q1019.12-40.41 1019.98-40.1 1020.85-39.79 1021.46-39.28 1022.07-38.77 1022.4-38.07 1022.73-37.38 1022.73-36.57L1022.73-36.57Q1022.73-35.79 1022.4-35.1 1022.07-34.4 1021.46-33.87 1020.85-33.35 1019.98-33.04 1019.12-32.74 1018.02-32.74ZM1014.41 0L1014.41-28.81 1021.63-28.81 1021.63 0 1014.41 0ZM1035.23 0L1035.23-23.39 1028.27-23.39 1028.27-28.81 1035.23-28.81 1035.23-37.77 1042.45-37.77 1042.45-28.81 1049.41-28.81 1049.41-23.39 1042.45-23.39 1042.45 0 1035.23 0ZM1054.46-14.5L1054.46-14.5Q1054.46-17.43 1055.66-20.1 1056.86-22.78 1059.1-24.83 1061.35-26.88 1064.61-28.1 1067.87-29.32 1072.02-29.32L1072.02-29.32Q1076.14-29.32 1079.45-28.09 1082.76-26.86 1085.07-24.71 1087.37-22.56 1088.61-19.65 1089.84-16.75 1089.84-13.43L1089.84-13.43Q1089.84-13.01 1089.83-12.54 1089.82-12.06 1089.77-11.67L1089.77-11.67 1062.52-11.67Q1062.98-10.38 1064.02-9.3 1065.06-8.23 1066.62-7.45 1068.18-6.67 1070.23-6.24 1072.29-5.81 1074.78-5.81L1074.78-5.81Q1077.27-5.81 1079.73-6.34 1082.2-6.86 1084.44-7.67L1084.44-7.67 1086.89-2.15Q1085.47-1.49 1084.02-0.99 1082.56-0.49 1080.99-0.16 1079.41 0.17 1077.69 0.34 1075.97 0.51 1074.07 0.51L1074.07 0.51Q1069.21 0.51 1065.55-0.66 1061.89-1.83 1059.42-3.86 1056.95-5.88 1055.71-8.62 1054.46-11.35 1054.46-14.5ZM1062.52-17.31L1082.17-17.31Q1081.78-18.51 1080.96-19.54 1080.15-20.58 1078.93-21.35 1077.71-22.12 1076.09-22.56 1074.48-23 1072.55-23L1072.55-23Q1070.5-23 1068.82-22.53 1067.13-22.07 1065.86-21.29 1064.6-20.51 1063.75-19.48 1062.91-18.46 1062.52-17.31L1062.52-17.31ZM1115.13 0L1115.13-38.16 1122.87-38.16 1136.73-24.24 1150.6-38.16 1158.34-38.16 1158.34 0 1150.6 0 1150.6-27.44 1136.73-14.09 1122.87-27.44 1122.87 0 1115.13 0ZM1166.57-14.4L1166.57-14.4Q1166.57-17.5 1167.82-20.21 1169.08-22.92 1171.41-24.95 1173.74-26.98 1177.05-28.15 1180.36-29.32 1184.49-29.32L1184.49-29.32Q1188.61-29.32 1191.92-28.15 1195.23-26.98 1197.56-24.95 1199.89-22.92 1201.15-20.21 1202.41-17.5 1202.41-14.4L1202.41-14.4Q1202.41-11.3 1201.15-8.59 1199.89-5.88 1197.56-3.86 1195.23-1.83 1191.92-0.66 1188.61 0.51 1184.49 0.51L1184.49 0.51Q1180.36 0.51 1177.05-0.66 1173.74-1.83 1171.41-3.86 1169.08-5.88 1167.82-8.59 1166.57-11.3 1166.57-14.4ZM1174.16-14.4L1174.16-14.4Q1174.16-12.67 1174.85-11.12 1175.55-9.57 1176.88-8.39 1178.21-7.2 1180.13-6.51 1182.04-5.81 1184.49-5.81L1184.49-5.81Q1186.93-5.81 1188.84-6.51 1190.76-7.2 1192.09-8.39 1193.42-9.57 1194.12-11.12 1194.81-12.67 1194.81-14.4L1194.81-14.4Q1194.81-16.14 1194.12-17.7 1193.42-19.26 1192.09-20.45 1190.76-21.63 1188.84-22.33 1186.93-23.02 1184.49-23.02L1184.49-23.02Q1182.04-23.02 1180.13-22.33 1178.21-21.63 1176.88-20.45 1175.55-19.26 1174.85-17.7 1174.16-16.14 1174.16-14.4ZM1219.37 0L1205.72-28.83 1214.1-28.83 1221.59-11.5 1223.55-6.64 1225.5-11.5 1232.99-28.83 1241.37-28.83 1227.72 0 1219.37 0ZM1250.23-32.74L1250.23-32.74Q1249.15-32.74 1248.29-33.04 1247.42-33.35 1246.81-33.87 1246.2-34.4 1245.87-35.1 1245.54-35.79 1245.54-36.57L1245.54-36.57Q1245.54-37.38 1245.87-38.07 1246.2-38.77 1246.81-39.28 1247.42-39.79 1248.29-40.1 1249.15-40.41 1250.23-40.41L1250.23-40.41Q1251.33-40.41 1252.19-40.1 1253.06-39.79 1253.67-39.28 1254.28-38.77 1254.61-38.07 1254.94-37.38 1254.94-36.57L1254.94-36.57Q1254.94-35.79 1254.61-35.1 1254.28-34.4 1253.67-33.87 1253.06-33.35 1252.19-33.04 1251.33-32.74 1250.23-32.74ZM1246.61 0L1246.61-28.81 1253.84-28.81 1253.84 0 1246.61 0ZM1261.72-14.5L1261.72-14.5Q1261.72-17.43 1262.92-20.1 1264.12-22.78 1266.36-24.83 1268.61-26.88 1271.87-28.1 1275.13-29.32 1279.28-29.32L1279.28-29.32Q1283.4-29.32 1286.71-28.09 1290.02-26.86 1292.33-24.71 1294.63-22.56 1295.87-19.65 1297.1-16.75 1297.1-13.43L1297.1-13.43Q1297.1-13.01 1297.09-12.54 1297.08-12.06 1297.03-11.67L1297.03-11.67 1269.78-11.67Q1270.24-10.38 1271.28-9.3 1272.32-8.23 1273.88-7.45 1275.44-6.67 1277.5-6.24 1279.55-5.81 1282.04-5.81L1282.04-5.81Q1284.53-5.81 1286.99-6.34 1289.46-6.86 1291.7-7.67L1291.7-7.67 1294.15-2.15Q1292.73-1.49 1291.28-0.99 1289.82-0.49 1288.25-0.16 1286.68 0.17 1284.95 0.34 1283.23 0.51 1281.33 0.51L1281.33 0.51Q1276.47 0.51 1272.81-0.66 1269.15-1.83 1266.68-3.86 1264.21-5.88 1262.97-8.62 1261.72-11.35 1261.72-14.5ZM1269.78-17.31L1289.43-17.31Q1289.04-18.51 1288.23-19.54 1287.41-20.58 1286.19-21.35 1284.97-22.12 1283.35-22.56 1281.74-23 1279.81-23L1279.81-23Q1277.76-23 1276.08-22.53 1274.39-22.07 1273.13-21.29 1271.86-20.51 1271.01-19.48 1270.17-18.46 1269.78-17.31L1269.78-17.31ZM1302.88-3.37L1306.01-8.84Q1308.94-7.08 1312.45-6.25 1315.97-5.42 1319.66-5.42L1319.66-5.42Q1322.15-5.42 1323.81-5.76 1325.47-6.1 1326.47-6.64 1327.47-7.18 1327.88-7.86 1328.3-8.54 1328.3-9.25L1328.3-9.25Q1328.3-10.28 1327.41-11.01 1326.52-11.74 1324.47-11.74L1324.47-11.74Q1323.51-11.74 1322.41-11.62 1321.32-11.5 1320.11-11.36 1318.9-11.23 1317.59-11.11 1316.29-10.99 1314.94-10.99L1314.94-10.99Q1312.01-10.99 1309.95-11.62 1307.89-12.26 1306.59-13.35 1305.3-14.45 1304.71-15.95 1304.13-17.46 1304.13-19.19L1304.13-19.19Q1304.13-21.39 1305.15-23.24 1306.18-25.1 1308.08-26.45 1309.99-27.81 1312.69-28.56 1315.38-29.32 1318.7-29.32L1318.7-29.32Q1320.44-29.32 1322.33-29.11 1324.22-28.91 1326.05-28.56 1327.88-28.22 1329.57-27.77 1331.25-27.32 1332.55-26.81L1332.55-26.81 1330.28-21.19Q1327.52-22.22 1324.77-22.81 1322.02-23.41 1319.12-23.41L1319.12-23.41Q1317.09-23.41 1315.69-23.11 1314.28-22.8 1313.41-22.3 1312.53-21.8 1312.12-21.15 1311.72-20.51 1311.72-19.8L1311.72-19.8Q1311.72-19.29 1311.93-18.87 1312.14-18.46 1312.61-18.15 1313.09-17.85 1313.86-17.69 1314.63-17.53 1315.75-17.53L1315.75-17.53Q1316.78-17.53 1317.92-17.65 1319.07-17.77 1320.32-17.91 1321.56-18.04 1322.89-18.16 1324.22-18.29 1325.61-18.29L1325.61-18.29Q1328.2-18.29 1330.14-17.68 1332.08-17.07 1333.35-15.97 1334.62-14.87 1335.26-13.38 1335.89-11.89 1335.89-10.13L1335.89-10.13Q1335.89-7.86 1334.84-5.91 1333.79-3.96 1331.72-2.53 1329.64-1.1 1326.55-0.29 1323.46 0.51 1319.41 0.51L1319.41 0.51Q1316.92 0.51 1314.6 0.21 1312.28-0.1 1310.18-0.62 1308.08-1.15 1306.24-1.86 1304.4-2.56 1302.88-3.37L1302.88-3.37Z" opacity="1" transform="matrix(1,0,0,1,0,0)" fill="#ffffff" class="undefined-text-1" data-fill-palette-color="secondary" id="text-1"></path></svg></g></svg></g></svg></g></svg></g><g><svg viewBox="0 0 103.28988612574867 103.28988612574868" height="103.28988612574868" width="103.28988612574867"><g><svg></svg></g><g id="icon-0"><svg viewBox="0 0 103.28988612574867 103.28988612574868" height="103.28988612574868" width="103.28988612574867"><g><path transform="scale(1.0329,1.0329)" d="M30 100c-16.569 0-30-13.431-30-30v-40c0-16.569 13.431-30 30-30h40c16.569 0 30 13.431 30 30v40c0 16.569-13.431 30-30 30z" fill="#10557c" fill-rule="nonzero" stroke="none" stroke-width="1" stroke-linecap="butt" stroke-linejoin="miter" stroke-miterlimit="10" stroke-dasharray="" stroke-dashoffset="0" font-family="none" font-weight="none" font-size="none" text-anchor="none" style="mix-blend-mode: normal" data-fill-palette-color="accent"></path></g><g transform="matrix(1,0,0,1,21.081619520856485,20.657977225149736)"><svg viewBox="0 0 61.126647084035696 61.97393167544921" height="61.97393167544921" width="61.126647084035696"><g><svg xmlns="http://www.w3.org/2000/svg" xmlns:xlink="http://www.w3.org/1999/xlink" version="1.1" x="0" y="0" viewBox="11.165710323769897 10.073749999999997 78.76053967623008 79.85225" enable-background="new 0 0 100 100" xml:space="preserve" height="61.97393167544921" width="61.126647084035696" class="icon-wb-0" data-fill-palette-color="quaternary" id="wb-0"><g fill="#ffffff" data-fill-palette-color="quaternary"><path fill="none" d="M26.032 26.031c-9.711 9.71-9.711 25.453 0 35.163 9.711 9.713 25.455 9.713 35.166 0 9.71-9.71 9.71-25.452 0.001-35.163C51.485 16.32 35.742 16.32 26.032 26.031zM58.244 53.829c0 2.683-2.184 4.865-4.865 4.865h-3.086v3.784h-2.117v-3.784h-3.38v3.784h-2.117v-3.784H39.21v3.784h-2.117v-3.784h-3.086c-2.683 0-4.866-2.183-4.866-4.865V34.458c0-2.683 2.183-4.865 4.866-4.865h3.086v-3.965h2.117v3.965h3.469v-3.965h2.117v3.965h3.38v-3.965h2.117v3.965h3.086c2.682 0 4.865 2.182 4.865 4.865V53.829z"></path><path fill="none" d="M53.379 30.673H34.007c-2.086 0-3.784 1.698-3.784 3.784v19.372c0 2.086 1.698 3.784 3.784 3.784h19.372c2.087 0 3.784-1.698 3.784-3.784V34.458C57.163 32.371 55.466 30.673 53.379 30.673zM54.437 50.563c0 2.388-1.937 4.324-4.324 4.324h-12.84c-2.388 0-4.325-1.937-4.325-4.324v-12.84c0-2.389 1.937-4.325 4.325-4.325h12.84c2.388 0 4.324 1.937 4.324 4.325V50.563z"></path><path d="M88.064 79.066L71.396 62.4c8.845-13.048 7.494-30.943-4.064-42.502-13.1-13.099-34.336-13.099-47.435 0C6.8 32.995 6.8 54.232 19.897 67.329 31.458 78.89 49.353 80.239 62.4 71.395l16.668 16.668c2.483 2.484 6.512 2.484 8.996 0C90.547 85.577 90.547 81.551 88.064 79.066zM61.197 61.194c-9.711 9.713-25.454 9.713-35.166 0-9.711-9.71-9.711-25.453 0-35.163 9.71-9.711 25.454-9.711 35.167 0C70.907 35.742 70.907 51.484 61.197 61.194z" fill="#ffffff" data-fill-palette-color="quaternary"></path><path d="M50.112 33.398h-12.84c-2.388 0-4.325 1.937-4.325 4.325v12.84c0 2.388 1.937 4.324 4.325 4.324h12.84c2.388 0 4.324-1.937 4.324-4.324v-12.84C54.437 35.335 52.5 33.398 50.112 33.398z" fill="#ffffff" data-fill-palette-color="quaternary"></path><path d="M53.379 29.592h-3.086v-3.965h-2.117v3.965h-3.38v-3.965h-2.117v3.965H39.21v-3.965h-2.117v3.965h-3.086c-2.683 0-4.866 2.182-4.866 4.865v19.372c0 2.683 2.183 4.865 4.866 4.865h3.086v3.784h2.117v-3.784h3.469v3.784h2.117v-3.784h3.38v3.784h2.117v-3.784h3.086c2.682 0 4.865-2.183 4.865-4.865V34.458C58.244 31.774 56.061 29.592 53.379 29.592zM57.163 53.829c0 2.086-1.697 3.784-3.784 3.784H34.007c-2.086 0-3.784-1.698-3.784-3.784V34.458c0-2.086 1.698-3.784 3.784-3.784h19.372c2.087 0 3.784 1.698 3.784 3.784V53.829z" fill="#ffffff" data-fill-palette-color="quaternary"></path></g></svg><g></g></g></svg></g></svg></g></svg></g></svg></g><defs></defs></svg><rect width="395.52" height="80.09644671253416" fill="none" stroke="none" visibility="hidden"></rect></g></svg></g></svg>