<?xml version="1.0" encoding="UTF-8"?>
<!DOCTYPE svg PUBLIC "-//W3C//DTD SVG 1.1//EN" "http://www.w3.org/Graphics/SVG/1.1/DTD/svg11.dtd">
<svg xmlns="http://www.w3.org/2000/svg" version="1.1" width="720px" height="202px" style="shape-rendering:geometricPrecision; text-rendering:geometricPrecision; image-rendering:optimizeQuality; fill-rule:evenodd; clip-rule:evenodd" xmlns:xlink="http://www.w3.org/1999/xlink">
<g><path style="opacity:0.994" fill="#10557c" d="M 48.5,-0.5 C 83.1667,-0.5 117.833,-0.5 152.5,-0.5C 180.601,6.7708 197.101,24.7708 202,53.5C 202.667,84.8333 202.667,116.167 202,147.5C 197.191,175.804 181.024,193.804 153.5,201.5C 118.167,201.5 82.8333,201.5 47.5,201.5C 22.0577,194.391 6.05774,178.058 -0.5,152.5C -0.5,118.167 -0.5,83.8333 -0.5,49.5C 5.71827,22.9482 22.0516,6.28149 48.5,-0.5 Z"/></g>
<g><path style="opacity:0.871" fill="#fefffe" d="M 601.5,11.5 C 610.375,12.9069 613.209,17.9069 610,26.5C 604.667,31.8333 599.333,31.8333 594,26.5C 591.336,18.7123 593.836,13.7123 601.5,11.5 Z"/></g>
<g><path style="opacity:0.926" fill="#fefffe" d="M 226.5,18.5 C 231.544,18.1725 236.544,18.5059 241.5,19.5C 247.578,34.9071 253.745,50.2404 260,65.5C 266,50.1667 272,34.8333 278,19.5C 283.072,18.5286 288.238,18.1953 293.5,18.5C 294.461,40.8354 295.461,63.1687 296.5,85.5C 291.167,85.5 285.833,85.5 280.5,85.5C 280.667,74.1618 280.5,62.8284 280,51.5C 275.204,62.7528 270.704,74.0862 266.5,85.5C 261.786,85.8266 257.12,85.4933 252.5,84.5C 247.707,73.6207 243.207,62.6207 239,51.5C 238.5,62.8284 238.333,74.1618 238.5,85.5C 233.167,85.5 227.833,85.5 222.5,85.5C 223.521,63.1392 224.855,40.8058 226.5,18.5 Z"/></g>
<g><path style="opacity:0.926" fill="#fefffe" d="M 358.5,18.5 C 372.833,18.5 387.167,18.5 401.5,18.5C 401.5,22.8333 401.5,27.1667 401.5,31.5C 392.833,31.5 384.167,31.5 375.5,31.5C 375.5,36.1667 375.5,40.8333 375.5,45.5C 382.833,45.5 390.167,45.5 397.5,45.5C 396.833,49.5 396.167,53.5 395.5,57.5C 388.833,57.5 382.167,57.5 375.5,57.5C 375.5,66.8333 375.5,76.1667 375.5,85.5C 369.833,85.5 364.167,85.5 358.5,85.5C 358.5,63.1667 358.5,40.8333 358.5,18.5 Z"/></g>
<g><path style="opacity:0.898" fill="#fefffe" d="M 639.5,22.5 C 641.43,26.3727 642.097,30.706 641.5,35.5C 645.167,35.5 648.833,35.5 652.5,35.5C 652.265,39.5767 651.598,43.5767 650.5,47.5C 647.572,48.4841 644.572,48.8174 641.5,48.5C 641.334,56.1739 641.5,63.8406 642,71.5C 643.085,72.2931 644.252,72.9598 645.5,73.5C 647.768,72.4557 650.101,72.289 652.5,73C 653.573,76.1203 654.573,79.2869 655.5,82.5C 647.699,85.7951 639.699,86.2951 631.5,84C 629,82.8333 627.167,81 626,78.5C 624.635,68.5566 624.135,58.5566 624.5,48.5C 622.167,48.5 619.833,48.5 617.5,48.5C 617.5,44.1667 617.5,39.8333 617.5,35.5C 620.167,35.5 622.833,35.5 625.5,35.5C 626.051,32.1933 626.384,28.8599 626.5,25.5C 631.092,25.1184 635.425,24.1184 639.5,22.5 Z"/></g>
<g><path style="opacity:0.928" fill="#fefffe" d="M 419.5,34.5 C 426.97,34.5671 434.303,35.5671 441.5,37.5C 442.24,48.8428 443.074,60.1762 444,71.5C 444.688,75.2093 446.188,78.5427 448.5,81.5C 444.124,84.0177 439.458,85.1844 434.5,85C 432.787,83.0749 431.453,80.9082 430.5,78.5C 425.852,85.1647 419.519,87.3313 411.5,85C 401.589,80.6838 397.256,73.0172 398.5,62C 398.207,47.1402 405.207,37.9735 419.5,34.5 Z M 419.5,47.5 C 421.833,47.5 424.167,47.5 426.5,47.5C 426.666,53.1764 426.499,58.8431 426,64.5C 425.218,68.4202 423.218,71.4202 420,73.5C 418.739,73.2409 417.739,72.5742 417,71.5C 414.387,63.0337 415.22,55.0337 419.5,47.5 Z"/></g>
<g><path style="opacity:0.923" fill="#fefffe" d="M 519.5,34.5 C 539.012,31.9105 548.679,40.4105 548.5,60C 547.276,81.1208 536.276,89.4541 515.5,85C 505.725,80.1271 501.392,72.1271 502.5,61C 501.641,47.7395 507.308,38.9061 519.5,34.5 Z M 522.5,47.5 C 525.044,47.1043 527.211,47.771 529,49.5C 531.816,56.0313 532.149,62.698 530,69.5C 528.155,73.7948 525.488,74.4615 522,71.5C 518.561,63.3931 518.728,55.3931 522.5,47.5 Z"/></g>
<g><path style="opacity:0.918" fill="#fefffe" d="M 563.5,34.5 C 564.496,34.4142 565.329,34.7476 566,35.5C 566.914,37.6641 568.081,39.6641 569.5,41.5C 574.771,35.1784 581.437,33.1784 589.5,35.5C 588.637,40.6169 587.304,45.6169 585.5,50.5C 583.328,50.6759 580.995,50.8425 578.5,51C 576.622,52.5429 575.122,54.3762 574,56.5C 573.5,66.1609 573.334,75.8276 573.5,85.5C 568.167,85.5 562.833,85.5 557.5,85.5C 557.666,75.1613 557.5,64.828 557,54.5C 556.545,48.7978 554.711,43.6311 551.5,39C 555.704,37.7691 559.704,36.2691 563.5,34.5 Z"/></g>
<g><path style="opacity:0.916" fill="#fefffe" d="M 674.5,34.5 C 680.711,34.0161 686.711,34.8494 692.5,37C 700.947,46.3286 700.281,54.9953 690.5,63C 685.045,65.7749 679.378,67.7749 673.5,69C 675.096,72.3004 677.763,73.8004 681.5,73.5C 686.249,72.8122 690.916,71.8122 695.5,70.5C 696.376,74.4616 697.042,78.4616 697.5,82.5C 688.338,85.7398 679.004,86.5731 669.5,85C 659.261,80.8737 654.594,73.2071 655.5,62C 655.082,47.9586 661.416,38.792 674.5,34.5 Z M 676.5,46.5 C 681.068,46.0826 682.568,48.0826 681,52.5C 679.317,55.267 676.817,56.9337 673.5,57.5C 672.637,53.4095 673.637,49.7429 676.5,46.5 Z"/></g>
<g><path style="opacity:0.933" fill="#fefffe" d="M 305.5,35.5 C 310.833,35.5 316.167,35.5 321.5,35.5C 321.082,47.8949 321.582,60.2282 323,72.5C 323.561,73.0219 324.228,73.3552 325,73.5C 329.593,71.323 331.926,67.6563 332,62.5C 332.5,53.5062 332.666,44.5062 332.5,35.5C 337.833,35.5 343.167,35.5 348.5,35.5C 347.826,51.9647 348.826,68.2981 351.5,84.5C 351.273,98.5607 344.106,105.894 330,106.5C 323.315,105.951 316.815,104.618 310.5,102.5C 311.707,98.2138 312.707,93.8805 313.5,89.5C 319.402,91.1815 325.402,92.0148 331.5,92C 336.766,88.7741 338.266,84.2741 336,78.5C 329.121,85.5449 320.954,87.3782 311.5,84C 308.533,81.8995 306.7,79.0662 306,75.5C 305.5,62.1708 305.333,48.8375 305.5,35.5 Z"/></g>
<g><path style="opacity:0.932" fill="#fefffe" d="M 453.5,35.5 C 458.833,35.5 464.167,35.5 469.5,35.5C 469.082,47.8949 469.582,60.2282 471,72.5C 474.915,74.2891 477.248,72.9558 478,68.5C 480.643,57.5982 481.143,46.5982 479.5,35.5C 485.093,35.1934 490.593,35.5268 496,36.5C 496.667,45.1667 496.667,53.8333 496,62.5C 491.898,83.333 479.731,90.1664 459.5,83C 457.383,81.2691 455.883,79.1024 455,76.5C 453.573,62.8931 453.073,49.2264 453.5,35.5 Z"/></g>
<g><path style="opacity:0.895" fill="#fefffe" d="M 593.5,35.5 C 599.167,35.5 604.833,35.5 610.5,35.5C 610.168,47.8513 610.501,60.1847 611.5,72.5C 612.5,73.8333 613.5,73.8333 614.5,72.5C 619.234,81.3656 616.734,85.6989 607,85.5C 601.743,85.8716 597.743,83.8716 595,79.5C 593.568,64.892 593.068,50.2253 593.5,35.5 Z"/></g>
<g><path style="opacity:1" fill="#fafbfc" d="M 78.5,40.5 C 100.471,37.4162 118.304,44.4162 132,61.5C 144.459,80.6705 144.626,100.004 132.5,119.5C 141.152,128.652 149.986,137.652 159,146.5C 161.962,156.747 158.129,161.581 147.5,161C 137.682,152.016 128.015,142.849 118.5,133.5C 92.7292,147.356 69.8959,143.689 50,122.5C 45.9456,117.058 42.9456,111.058 41,104.5C 35.7955,72.5524 48.2955,51.2191 78.5,40.5 Z"/></g>
<g><path style="opacity:1" fill="#18587e" d="M 81.5,53.5 C 104.064,51.0237 119.231,60.3571 127,81.5C 130.401,105.554 120.567,121.054 97.5,128C 74.562,130.287 59.7286,120.454 53,98.5C 50.8974,76.0191 60.3974,61.0191 81.5,53.5 Z"/></g>
<g><path style="opacity:1" fill="#eff4f6" d="M 100.5,69.5 C 93.8333,70.8333 87.1667,70.8333 80.5,69.5C 80.5,67.5 80.5,65.5 80.5,63.5C 81.5,63.5 82.5,63.5 83.5,63.5C 83.5,65.5 83.5,67.5 83.5,69.5C 85.1667,69.5 86.8333,69.5 88.5,69.5C 88.5,67.5 88.5,65.5 88.5,63.5C 89.5,63.5 90.5,63.5 91.5,63.5C 91.5,65.5 91.5,67.5 91.5,69.5C 93.5,69.5 95.5,69.5 97.5,69.5C 97.5,67.5 97.5,65.5 97.5,63.5C 98.5,63.5 99.5,63.5 100.5,63.5C 100.5,65.5 100.5,67.5 100.5,69.5 Z"/></g>
<g><path style="opacity:1" fill="#d1dee6" d="M 80.5,69.5 C 87.1667,70.8333 93.8333,70.8333 100.5,69.5C 105.635,68.4262 109.468,70.0928 112,74.5C 112.826,86.0076 112.659,97.3409 111.5,108.5C 111.5,107.833 111.167,107.5 110.5,107.5C 110.667,96.495 110.5,85.495 110,74.5C 109.167,73.6667 108.333,72.8333 107.5,72C 95.8333,71.3333 84.1667,71.3333 72.5,72C 71.3636,73.1451 70.3636,74.3117 69.5,75.5C 69.5,74.8333 69.1667,74.5 68.5,74.5C 71.1675,69.9719 75.1675,68.3053 80.5,69.5 Z"/></g>
<g><path style="opacity:1" fill="#1f5c82" d="M 110.5,107.5 C 110.084,109.752 108.751,111.252 106.5,112C 95.5,112.667 84.5,112.667 73.5,112C 72.3333,110.833 71.1667,109.667 70,108.5C 69.5002,97.505 69.3335,86.505 69.5,75.5C 70.3636,74.3117 71.3636,73.1451 72.5,72C 84.1667,71.3333 95.8333,71.3333 107.5,72C 108.333,72.8333 109.167,73.6667 110,74.5C 110.5,85.495 110.667,96.495 110.5,107.5 Z"/></g>
<g><path style="opacity:1" fill="#f9fafb" d="M 77.5,75.5 C 85.84,75.3336 94.1733,75.5003 102.5,76C 103.416,76.3742 104.25,76.8742 105,77.5C 106.609,86.398 106.942,95.398 106,104.5C 105.167,105.333 104.333,106.167 103.5,107C 95.2704,108.604 86.9371,108.937 78.5,108C 77.0692,107.535 75.9025,106.701 75,105.5C 73.3933,96.9362 73.06,88.2695 74,79.5C 75.3756,78.2949 76.5423,76.9616 77.5,75.5 Z"/></g>
<g><path style="opacity:0.871" fill="#fefffe" d="M 417.5,104.5 C 426.375,105.907 429.209,110.907 426,119.5C 420.667,124.833 415.333,124.833 410,119.5C 407.336,111.712 409.836,106.712 417.5,104.5 Z"/></g>
<g><path style="opacity:0.922" fill="#fefffe" d="M 228.5,111.5 C 233.833,111.5 239.167,111.5 244.5,111.5C 250.208,127.254 256.208,142.921 262.5,158.5C 268.567,143.132 274.734,127.799 281,112.5C 285.737,111.531 290.57,111.197 295.5,111.5C 297.145,133.806 298.479,156.139 299.5,178.5C 294.167,178.5 288.833,178.5 283.5,178.5C 283.185,167.828 282.685,157.161 282,146.5C 277.943,156.948 273.609,167.282 269,177.5C 264.55,178.8 260.05,178.8 255.5,177.5C 250.447,166.728 245.947,155.728 242,144.5C 241.768,155.866 241.268,167.199 240.5,178.5C 235.5,178.5 230.5,178.5 225.5,178.5C 226.539,156.168 227.539,133.835 228.5,111.5 Z"/></g>
<g><path style="opacity:1" fill="#f5f8f9" d="M 68.5,74.5 C 69.1667,74.5 69.5,74.8333 69.5,75.5C 69.3335,86.505 69.5002,97.505 70,108.5C 71.1667,109.667 72.3333,110.833 73.5,112C 84.5,112.667 95.5,112.667 106.5,112C 108.751,111.252 110.084,109.752 110.5,107.5C 111.167,107.5 111.5,107.833 111.5,108.5C 111.141,110.371 110.141,111.871 108.5,113C 105.854,113.497 103.187,113.664 100.5,113.5C 100.5,115.5 100.5,117.5 100.5,119.5C 99.5,119.5 98.5,119.5 97.5,119.5C 97.5,117.5 97.5,115.5 97.5,113.5C 95.5,113.5 93.5,113.5 91.5,113.5C 91.5,115.5 91.5,117.5 91.5,119.5C 90.5,119.5 89.5,119.5 88.5,119.5C 88.5,117.5 88.5,115.5 88.5,113.5C 86.8333,113.5 85.1667,113.5 83.5,113.5C 83.5,115.5 83.5,117.5 83.5,119.5C 82.5,119.5 81.5,119.5 80.5,119.5C 80.5,117.5 80.5,115.5 80.5,113.5C 77.8127,113.664 75.146,113.497 72.5,113C 70.6667,112.5 69.5,111.333 69,109.5C 68.5001,97.8381 68.3335,86.1714 68.5,74.5 Z"/></g>
<g><path style="opacity:1" fill="#779eb4" d="M 97.5,119.5 C 96.5489,118.081 96.2155,116.415 96.5,114.5C 95.1667,114.5 93.8333,114.5 92.5,114.5C 92.7845,116.415 92.4511,118.081 91.5,119.5C 91.5,117.5 91.5,115.5 91.5,113.5C 93.5,113.5 95.5,113.5 97.5,113.5C 97.5,115.5 97.5,117.5 97.5,119.5 Z"/></g>
<g><path style="opacity:0.921" fill="#fefffe" d="M 323.5,127.5 C 342.398,125.568 352.065,134.068 352.5,153C 350.188,175.29 338.188,183.29 316.5,177C 308.642,171.466 304.975,163.8 305.5,154C 304.99,140.466 310.99,131.633 323.5,127.5 Z M 325.5,140.5 C 330.058,139.38 332.891,141.047 334,145.5C 334.87,151.917 334.536,158.251 333,164.5C 328.82,167.532 325.82,166.532 324,161.5C 322.999,154.33 323.499,147.33 325.5,140.5 Z"/></g>
<g><path style="opacity:0.918" fill="#fefffe" d="M 454.5,127.5 C 461.221,126.751 467.554,127.918 473.5,131C 478.209,137.471 478.709,144.304 475,151.5C 469.465,157.351 462.631,160.517 454.5,161C 453.5,163.091 454.167,164.757 456.5,166C 462.41,166.88 468.076,166.047 473.5,163.5C 475.312,166.429 476.646,169.595 477.5,173C 477.18,174.653 476.18,175.653 474.5,176C 442.266,184.766 430.1,172.933 438,140.5C 441.772,133.877 447.272,129.543 454.5,127.5 Z M 456.5,139.5 C 461.068,139.083 462.568,141.083 461,145.5C 459.159,148.178 456.659,149.845 453.5,150.5C 452.251,146.244 453.251,142.577 456.5,139.5 Z"/></g>
<g><path style="opacity:0.904" fill="#fefffe" d="M 495.5,127.5 C 503.755,126.75 511.422,128.417 518.5,132.5C 516.862,136.46 514.862,140.126 512.5,143.5C 508.488,141.117 504.155,140.117 499.5,140.5C 500.874,145.39 504.208,148.223 509.5,149C 518.781,154.753 520.948,162.587 516,172.5C 511.901,177.132 506.734,179.465 500.5,179.5C 493.352,179.214 486.685,177.381 480.5,174C 482.408,170.104 484.408,166.271 486.5,162.5C 490.99,165.732 495.823,166.732 501,165.5C 501.667,164.167 501.667,162.833 501,161.5C 496.419,159.127 491.919,156.627 487.5,154C 481.284,146.935 480.95,139.602 486.5,132C 489.324,129.921 492.324,128.421 495.5,127.5 Z"/></g>
<g><path style="opacity:0.907" fill="#fefffe" d="M 358.5,128.5 C 364.167,128.5 369.833,128.5 375.5,128.5C 375.333,140.838 375.5,153.171 376,165.5C 379.408,167.223 381.741,166.223 383,162.5C 385.647,151.259 386.147,139.926 384.5,128.5C 390.167,128.5 395.833,128.5 401.5,128.5C 403.302,141.072 402.302,153.406 398.5,165.5C 394.175,174.808 386.842,179.141 376.5,178.5C 368.696,179.518 363.196,176.518 360,169.5C 358.594,155.885 358.094,142.218 358.5,128.5 Z"/></g>
<g><path style="opacity:0.896" fill="#fefffe" d="M 409.5,128.5 C 415.167,128.5 420.833,128.5 426.5,128.5C 426.5,140.833 426.5,153.167 426.5,165.5C 428.167,165.5 429.833,165.5 431.5,165.5C 432.517,169.394 432.517,173.227 431.5,177C 424.448,179.681 417.948,178.847 412,174.5C 411.027,172.608 410.36,170.608 410,168.5C 409.5,155.171 409.333,141.837 409.5,128.5 Z"/></g>
</svg>
