<?xml version="1.0" encoding="UTF-8"?>
<svg viewBox="0 0 1000 202" xmlns="http://www.w3.org/2000/svg">
<g transform="translate(-.606 .122)">
<svg width="1e3" height="202" viewBox="0 0 396 80">
<g transform="translate(.24 -.048)">
<svg width="395.52" height="80.096">
<svg width="395.52" height="80.096" viewBox="0 0 510.05 103.29">
<g transform="translate(114.53 14.275)">
<svg width="395.52" height="74.739">
<svg width="395.52" height="74.739">
<svg width="395.52" height="47.613">
<svg width="395.52" height="47.613" viewBox="2.6 -37.15 397.86 47.9">
<path d="M28.8-10.05L24.55 0H18.3l-4.15-9.6q-.15-.4-.57-1.48-.43-1.07-.95-2.45-.53-1.37-1.08-2.82-.55-1.45-1-2.65h0q0 1.3 0 3 0 1.7 0 3.45 0 1.75-.02 3.3-.03 1.55-.08 2.45h0L10.2 0H2.6l2-33.85h7.1l7.8 19.5q.35.9.93 2.52.57 1.63 1.12 3.53h0q.55-1.85 1.13-3.48.57-1.62.97-2.57h0l7.8-19.5h6.95L40.4 0h-7.75l-.3-6.8q-.05-.95-.08-2.5-.02-1.55-.02-3.28 0-1.72.02-3.45.03-1.72.03-2.97h0q-.4 1.05-.87 2.37-.48 1.33-.98 2.58-.5 1.25-.95 2.32-.45 1.08-.7 1.68h0zM66.95-25.1l-.2 13.55q0 1.6.27 2.97.28 1.38.63 2.7.35 1.33.65 2.73.3 1.4.3 3h0q0 5.25-2.95 8.08-2.95 2.82-8.05 2.82h0q-2.3 0-4.8-.55-2.5-.55-4.9-1.55h0l1.85-6.1q2.2.75 3.85 1.18 1.65.42 3.5.42h0q2 0 3.22-1.15 1.23-1.15 1.23-3.3h0q0-1-.15-1.83-.15-.82-.55-1.82h0Q59.55-1.7 57.3-.7q-2.25 1-4.85 1h0q-1.95 0-3.33-.63-1.37-.62-2.25-1.75Q46-3.2 45.62-4.8q-.37-1.6-.37-3.6h0v-16.7h7.95v15.65q0 1.75.42 2.82.43 1.08 1.58 1.08h0q.65 0 1.32-.48.68-.47 1.23-1.35.55-.87.9-2.12.35-1.25.35-2.8h0v-12.8h7.95zM72.64 0v-33.85H94.2v6H80.9v7.75h11.15l-1 5.95H80.9V0h-8.26zm42.8-24v11.95q0 3 .4 5 .4 2 .95 3.2h0q.6 1.45 1.4 2.25h0l-6.35 2q-.55-.5-1-1.25h0q-.4-.65-.77-1.58-.38-.92-.63-2.17h0q-.85 2.35-2.5 3.62Q105.29.3 102.59.3h0q-2.45 0-4.27-.9-1.83-.9-3.03-2.53-1.2-1.62-1.77-3.92-.58-2.3-.58-5.1h0q0-2.85.93-5.3.92-2.45 2.57-4.23 1.65-1.77 3.95-2.77 2.3-1 5.1-1h0q1.55 0 3.3.22 1.75.23 3.2.5 1.45.28 2.43.5.97.23 1.02.23h0zM103.89-5.5q.75 0 1.43-.65.67-.65 1.17-1.75.5-1.1.78-2.53.27-1.42.27-3.02h0v-5.8q-.35-.15-.97-.28-.63-.12-1.08-.12h0q-1.2 0-2 .52-.8.53-1.27 1.45-.48.93-.68 2.23-.2 1.3-.2 2.8h0q0 1.4.05 2.67.05 1.28.33 2.28.27 1 .77 1.6.5.6 1.4.6h0zm30.8-19.6h7.9q.2.8.4 2.6.2 1.8.2 3.75h0q0 5.2-.82 8.82-.83 3.63-2.48 5.9-1.65 2.28-4.17 3.3Q133.19.3 129.74.3h0q-4.3 0-6.32-2.45-2.03-2.45-2.03-6.5h0V-25.1h7.9v16.3q0 1.45.4 2.47.4 1.03 1.4 1.03h0q1.2 0 2-1.18.8-1.17 1.28-3.05.47-1.87.69-4.2.23-2.32.23-4.62h0q0-2.5-.23-4.13-.22-1.62-.37-2.62h0zm23.55-.5q5.95 0 8.67 3.4 2.73 3.4 2.73 9.4h0q0 2.85-.73 5.27-.72 2.43-2.2 4.2-1.47 1.78-3.7 2.8Q160.79.5 157.84.5h0q-3 0-5.18-.88-2.17-.87-3.55-2.52-1.37-1.65-2.05-4.03-.67-2.37-.67-5.32h0q0-2.85.72-5.3.73-2.45 2.2-4.23 1.48-1.77 3.7-2.8 2.23-1.02 5.23-1.02h0zm-.45 5.95q-.9 0-1.5.52-.6.53-.93 1.45-.32.93-.45 2.18-.12 1.25-.12 2.7h0q0 1.5.15 2.85.15 1.35.52 2.35.38 1 1.08 1.57.7.58 1.75.58h0q.9 0 1.5-.55.6-.55.92-1.48.33-.92.45-2.17.13-1.25.13-2.65h0q0-1.55-.15-2.88-.15-1.32-.53-2.32-.37-1-1.07-1.57-.7-.58-1.75-.58h0zm28.6 1.75q-.55 0-1.2.3-.65.3-1.25.92-.6.63-1 1.6-.4.98-.4 2.33h0V0h-7.9v-13q0-3-.43-4.98-.42-1.97-.97-3.22h0q-.6-1.4-1.35-2.25h0l6.35-2q.4.5.85 1.15h0q.35.55.75 1.4.4.85.65 1.95h0q1.25-2.4 2.97-3.45 1.73-1.05 4.08-1.05h0q1.05 0 1.87.17.83.18 1.38.38h0l-2.05 7.55q-.35-.2-.93-.38-.57-.17-1.42-.17h0zM199.88.2q-2.85 0-4.6-1.48-1.75-1.47-1.75-4.17h0V-25.1h7.9v17.4q0 1.15.35 1.55.35.4 1.05.4h0q.4 0 .8-.08.4-.07.5-.12h0l.7 4.95q-.05.05-.45.22-.4.18-1.05.4-.65.23-1.55.41-.9.17-1.9.17h0zm-2.3-37.35q2.1 0 3.2 1.25 1.1 1.25 1.1 3.15h0q0 1.95-1.12 3.25-1.13 1.3-3.38 1.3h0q-2.1 0-3.22-1.28-1.13-1.27-1.13-3.02h0q0-2 1.15-3.33 1.15-1.32 3.4-1.32h0zm7.9 18.05v-5.8h4.1l.85-5.15 6.85-1.5v6.65h5.9l-.95 5.8h-4.95v11.15q0 2.2 2.3 2.2h0q1.25 0 2.4-.25h0q.6-.15 1.2-.3h0l1.35 5.3q-1 .35-2.77.77-1.78.43-4.33.43h0q-3.75 0-5.87-1.55-2.13-1.55-2.13-5.25h0v-12.5h-3.95zm19.7 7.25q0-3.35.97-5.93.98-2.57 2.7-4.3 1.73-1.72 4.03-2.62 2.3-.9 5-.9h0q2.35 0 4 .57 1.65.58 2.7 1.6 1.05 1.03 1.55 2.4.5 1.38.5 2.98h0q0 1.8-.9 3.4-.9 1.6-2.58 2.82-1.67 1.23-4.05 2.03-2.37.8-5.37 1.05h0q.35 1.5 1.27 2.42.93.93 2.83.93h0q1.1 0 2.35-.25 1.25-.25 2.3-.55h0q1.25-.35 2.45-.8h0l1.5 5.2q-1.35.65-2.95 1.15h0q-1.35.4-3.13.75-1.77.35-3.77.35h0q-3.05 0-5.23-.9-2.17-.9-3.55-2.5-1.37-1.6-2-3.88-.62-2.27-.62-5.02h0zm11.7-8.1q-.95 0-1.63.55-.67.55-1.07 1.45-.4.9-.6 2-.2 1.1-.25 2.15h0q1.5-.05 2.52-.45 1.03-.4 1.68-1 .65-.6.95-1.3.3-.7.3-1.3h0q0-.95-.53-1.53-.52-.57-1.37-.57h0zm39.45 9.9L272.08 0h-6.25l-4.15-9.6q-.15-.4-.58-1.48-.42-1.07-.95-2.45-.52-1.37-1.07-2.82-.55-1.45-1-2.65h0q0 1.3 0 3 0 1.7 0 3.45 0 1.75-.03 3.3-.02 1.55-.07 2.45h0l-.25 6.8h-7.6l2-33.85h7.1l7.8 19.5q.35.9.92 2.52.58 1.63 1.13 3.53h0q.55-1.85 1.12-3.48.58-1.62.98-2.57h0l7.8-19.5h6.95l2 33.85h-7.75l-.3-6.8q-.05-.95-.08-2.5-.02-1.55-.02-3.28 0-1.72.02-3.45.03-1.72.03-2.97h0q-.4 1.05-.88 2.37-.47 1.33-.97 2.58-.5 1.25-.95 2.32-.45 1.08-.7 1.68h0zm27.09-15.55q5.95 0 8.68 3.4 2.72 3.4 2.72 9.4h0q0 2.85-.72 5.27-.73 2.43-2.2 4.2-1.48 1.78-3.7 2.8Q305.97.5 303.02.5h0q-3 0-5.17-.88-2.18-.87-3.55-2.52-1.38-1.65-2.05-4.03-.68-2.37-.68-5.32h0q0-2.85.73-5.3.72-2.45 2.2-4.23 1.47-1.77 3.7-2.8 2.22-1.02 5.22-1.02h0zm-.45 5.95q-.9 0-1.5.52-.6.53-.92 1.45-.33.93-.45 2.18-.13 1.25-.13 2.7h0q0 1.5.15 2.85.15 1.35.53 2.35.37 1 1.07 1.57.7.58 1.75.58h0q.9 0 1.5-.55.6-.55.93-1.48.32-.92.45-2.17.12-1.25.12-2.65h0q0-1.55-.15-2.88-.15-1.32-.52-2.32-.38-1-1.08-1.57-.7-.58-1.75-.58h0zm29.15-5.45h7.9q.2.8.4 2.6.2 1.8.2 3.75h0q0 5.2-.82 8.82-.83 3.63-2.48 5.9-1.65 2.28-4.17 3.3Q330.62.3 327.17.3h0q-4.3 0-6.32-2.45-2.03-2.45-2.03-6.5h0V-25.1h7.9v16.3q0 1.45.4 2.47.4 1.03 1.4 1.03h0q1.2 0 2-1.18.8-1.17 1.28-3.05.47-1.87.7-4.2.22-2.32.22-4.62h0q0-2.5-.22-4.13-.23-1.62-.38-2.62h0zM351.42.2q-2.85 0-4.6-1.48-1.75-1.47-1.75-4.17h0V-25.1h7.9v17.4q0 1.15.35 1.55.35.4 1.05.4h0q.4 0 .8-.08.4-.07.5-.12h0l.7 4.95q-.05.05-.45.22-.4.18-1.05.4-.65.23-1.55.41-.9.17-1.9.17h0zm-2.3-37.35q2.1 0 3.2 1.25 1.1 1.25 1.1 3.15h0q0 1.95-1.13 3.25-1.12 1.3-3.37 1.3h0q-2.1 0-3.23-1.28-1.12-1.27-1.12-3.02h0q0-2 1.15-3.33 1.15-1.32 3.4-1.32h0zm8.95 25.3q0-3.35.97-5.93.98-2.57 2.7-4.3 1.73-1.72 4.03-2.62 2.3-.9 5-.9h0q2.35 0 4 .57 1.65.58 2.7 1.6 1.05 1.03 1.55 2.4.5 1.38.5 2.98h0q0 1.8-.9 3.4-.9 1.6-2.58 2.82-1.67 1.23-4.05 2.03-2.37.8-5.37 1.05h0q.35 1.5 1.27 2.42.93.93 2.83.93h0q1.1 0 2.35-.25 1.25-.25 2.3-.55h0q1.25-.35 2.45-.8h0l1.5 5.2q-1.35.65-2.95 1.15h0q-1.35.4-3.13.75-1.77.35-3.77.35h0q-3.05 0-5.23-.9-2.17-.9-3.55-2.5-1.37-1.6-2-3.88-.62-2.27-.62-5.02h0zm11.7-8.1q-.95 0-1.63.55-.67.55-1.07 1.45-.4.9-.6 2-.2 1.1-.25 2.15h0q1.5-.05 2.52-.45 1.03-.4 1.68-1 .65-.6.95-1.3.3-.7.3-1.3h0q0-.95-.53-1.53-.52-.57-1.37-.57h0zm21.49-5.6h0q1.9 0 3.53.32 1.62.33 2.87.73h0q1.45.5 2.65 1.05h0l-2.5 5.6q-.4-.2-1.02-.5-.63-.3-1.35-.6-.73-.3-1.53-.5-.8-.2-1.55-.2h0q-.8 0-1.35.35-.55.35-.55 1.1h0q0 .8 1.03 1.57 1.02.78 2.72 1.48h0q3 1.25 4.63 2.97 1.62 1.73 1.62 4.63h0q0 1.6-.57 3.07-.58 1.48-1.7 2.58-1.13 1.1-2.83 1.75-1.7.65-3.9.65h0q-1.75 0-3.27-.25-1.53-.25-2.8-.63-1.28-.37-2.28-.75-1-.37-1.6-.67h0l2.6-5.75q.25.1.88.45.62.35 1.45.7.82.35 1.75.62.92.28 1.77.28h0q1.05 0 1.73-.4.67-.4.67-1.2h0q0-.95-.82-1.7-.83-.75-2.13-1.25h0q-3.75-1.5-5.37-3.38-1.63-1.87-1.63-4.67h0q0-1.6.6-2.95.6-1.35 1.75-2.35 1.15-1 2.78-1.58 1.62-.57 3.72-.57z" fill="#fff"/>
</svg>
</svg>
<g transform="translate(0 58.854)">
<svg width="395.52" height="15.886">
<svg width="395.52" height="15.886" viewBox="5.37 -40.5 1330.52 53.44">
<path d="m5.37 0v-38.16h7.74l23.78 12.45v-12.45h7.74v38.16h-7.74v-17.5l-23.78-12.38v29.88h-7.74zm47.78-14.5q0-2.93 1.19-5.6 1.2-2.68 3.45-4.73 2.24-2.05 5.5-3.27t7.41-1.22q4.13 0 7.43 1.23 3.31 1.23 5.62 3.38t3.54 5.06q1.23 2.9 1.23 6.22 0 0.42-0.01 0.89-0.01 0.48-0.06 0.87h-27.25q0.47 1.29 1.51 2.37 1.03 1.07 2.6 1.85 1.56 0.78 3.61 1.21t4.54 0.43 4.96-0.53q2.46-0.52 4.71-1.33l2.44 5.52q-1.42 0.66-2.87 1.16t-3.03 0.83q-1.57 0.33-3.29 0.5t-3.63 0.17q-4.86 0-8.52-1.17t-6.13-3.2q-2.46-2.02-3.71-4.76-1.24-2.73-1.24-5.88zm8.05-2.81h19.66q-0.39-1.2-1.21-2.23-0.82-1.04-2.04-1.81t-2.83-1.21-3.54-0.44q-2.05 0-3.74 0.47-1.68 0.46-2.95 1.24t-2.11 1.81q-0.85 1.02-1.24 2.17zm44.75 17.31-13.65-28.83h8.38l7.49 17.33 1.96 4.86 1.95-4.86 7.5-17.33h8.37l-13.65 28.83h-8.35zm25.68-14.5q0-2.93 1.2-5.6 1.2-2.68 3.44-4.73 2.25-2.05 5.51-3.27t7.41-1.22q4.12 0 7.43 1.23t5.62 3.38q2.3 2.15 3.54 5.06 1.23 2.9 1.23 6.22 0 0.42-0.01 0.89-0.02 0.48-0.06 0.87h-27.25q0.46 1.29 1.5 2.37 1.04 1.07 2.6 1.85t3.61 1.21q2.06 0.43 4.55 0.43t4.95-0.53q2.47-0.52 4.71-1.33l2.45 5.52q-1.42 0.66-2.87 1.16-1.46 0.5-3.03 0.83-1.58 0.33-3.3 0.5t-3.62 0.17q-4.86 0-8.52-1.17t-6.13-3.2q-2.47-2.02-3.71-4.76-1.25-2.73-1.25-5.88zm8.06-2.81h19.65q-0.39-1.2-1.21-2.23-0.81-1.04-2.03-1.81t-2.84-1.21q-1.61-0.44-3.54-0.44-2.05 0-3.73 0.47-1.69 0.46-2.96 1.24t-2.11 1.81q-0.84 1.02-1.23 2.17zm35.08 17.31v-28.81h7.23v4.15q2.39-1.78 5.05-3.07 2.66-1.3 5.3-1.98l2.12 6.61q-4.17 0.42-7.33 1.87-3.17 1.45-5.14 4.09v17.14h-7.23zm42.57 0v-38.16h34.13v6.79h-26.39v9.98h22.41v6.38h-22.41v15.01h-7.74zm38.97-14.4q0-3.1 1.25-5.81 1.26-2.71 3.59-4.74t5.64-3.2 7.44-1.17q4.12 0 7.43 1.17t5.64 3.2 3.59 4.74 1.26 5.81-1.26 5.81-3.59 4.73q-2.33 2.03-5.64 3.2t-7.43 1.17q-4.13 0-7.44-1.17t-5.64-3.2q-2.33-2.02-3.59-4.73-1.25-2.71-1.25-5.81zm7.59 0q0 1.73 0.69 3.28 0.7 1.55 2.03 2.73 1.33 1.19 3.25 1.88 1.91 0.7 4.36 0.7 2.44 0 4.35-0.7 1.92-0.69 3.25-1.88 1.33-1.18 2.03-2.73 0.69-1.55 0.69-3.28 0-1.74-0.69-3.3-0.7-1.56-2.03-2.75-1.33-1.18-3.25-1.88-1.91-0.69-4.35-0.69-2.45 0-4.36 0.69-1.92 0.7-3.25 1.88-1.33 1.19-2.03 2.75-0.69 1.56-0.69 3.3zm35.54 14.4v-28.81h7.23v4.15q2.39-1.78 5.05-3.07 2.66-1.3 5.3-1.98l2.13 6.61q-4.18 0.42-7.34 1.87t-5.14 4.09v17.14h-7.23zm26.9 10.99 2.69-6.11q1.37 0.49 2.78 0.82 1.42 0.33 2.75 0.54t2.55 0.29q1.22 0.09 2.17 0.09 2.89 0 5.02-0.7 2.14-0.7 3.57-1.87 1.42-1.17 2.13-2.72t0.71-3.28v-1.25q-0.93 0.64-2.17 1.22-1.25 0.59-2.74 1.03t-3.16 0.71q-1.67 0.26-3.45 0.26-3.54 0-6.55-1.06-3-1.06-5.2-2.98-2.19-1.91-3.43-4.6-1.23-2.68-1.23-5.96 0-3.34 1.29-6.06 1.3-2.72 3.58-4.65t5.41-2.98q3.12-1.05 6.79-1.05 1.56 0 3.1 0.19 1.53 0.2 2.94 0.54 1.4 0.34 2.63 0.82 1.24 0.48 2.19 1.04v-2.08h7.23v25.51q0 3.93-1.2 6.96t-3.5 5.09q-2.31 2.07-5.73 3.13t-7.84 1.06q-1.58 0-3.29-0.13-1.71-0.14-3.43-0.4-1.72-0.25-3.39-0.61-1.68-0.35-3.22-0.81zm4.03-25.64q0 1.73 0.7 3.26 0.69 1.53 1.99 2.66 1.29 1.14 3.12 1.78 1.83 0.65 4.13 0.65 1.49 0 2.97-0.28 1.47-0.28 2.83-0.79 1.35-0.52 2.54-1.25 1.18-0.73 2.06-1.63v-9.5q-1.1-0.88-2.32-1.49t-2.49-1-2.56-0.57q-1.3-0.19-2.52-0.19-2.49 0-4.43 0.66t-3.27 1.8q-1.33 1.13-2.04 2.64-0.71 1.52-0.71 3.25zm34.42 0.15q0-2.93 1.2-5.6 1.2-2.68 3.44-4.73 2.25-2.05 5.51-3.27t7.41-1.22q4.12 0 7.43 1.23t5.62 3.38q2.3 2.15 3.54 5.06 1.23 2.9 1.23 6.22 0 0.42-0.01 0.89-0.01 0.48-0.06 0.87h-27.25q0.46 1.29 1.5 2.37 1.04 1.07 2.6 1.85 1.57 0.78 3.62 1.21t4.54 0.43 4.95-0.53q2.47-0.52 4.71-1.33l2.45 5.52q-1.42 0.66-2.87 1.16-1.46 0.5-3.03 0.83t-3.3 0.5q-1.72 0.17-3.62 0.17-4.86 0-8.52-1.17t-6.13-3.2q-2.47-2.02-3.71-4.76-1.25-2.73-1.25-5.88zm8.06-2.81h19.65q-0.39-1.2-1.2-2.23-0.82-1.04-2.04-1.81t-2.83-1.21q-1.62-0.44-3.54-0.44-2.06 0-3.74 0.47-1.68 0.46-2.95 1.24t-2.12 1.81q-0.84 1.02-1.23 2.17zm39.43 17.31v-23.39h-6.96v-5.42h6.96v-8.96h7.22v8.96h6.96v5.42h-6.96v23.39h-7.22zm33.2 0 17.92-38.16h8.2l18.46 38.16h-8.13l-3.06-6.42h-22.29l-2.95 6.42h-8.15zm14.06-12.79h16.28l-8.25-17.34-8.03 17.34zm35.35 12.79v-40.5h7.22v14.4q0.96-0.66 2.25-1.24 1.29-0.59 2.78-1.03t3.08-0.69q1.59-0.26 3.17-0.26 3.66 0 6.73 1.07 3.06 1.08 5.26 3.03t3.43 4.68q1.23 2.72 1.23 6.01 0 3.45-1.29 6.22t-3.58 4.73q-2.28 1.97-5.42 3.03-3.13 1.06-6.8 1.06-1.56 0-3.09-0.19-1.52-0.2-2.92-0.54-1.41-0.34-2.64-0.82-1.23-0.47-2.19-1.04v2.08h-7.22zm7.22-19.04v9.98q1.1 0.88 2.32 1.49t2.49 1 2.57 0.58q1.29 0.18 2.51 0.18 2.49 0 4.43-0.67t3.27-1.85q1.33-1.17 2.04-2.75 0.71-1.59 0.71-3.45 0-1.73-0.7-3.27-0.69-1.54-2-2.7-1.3-1.16-3.15-1.83-1.84-0.67-4.13-0.67-1.47 0-2.93 0.28-1.47 0.28-2.82 0.8-1.36 0.51-2.54 1.24-1.19 0.73-2.07 1.64zm32.89 4.64q0-3.1 1.25-5.81 1.26-2.71 3.59-4.74t5.64-3.2 7.44-1.17q4.12 0 7.43 1.17t5.64 3.2 3.59 4.74 1.26 5.81-1.26 5.81-3.59 4.73q-2.33 2.03-5.64 3.2t-7.43 1.17q-4.13 0-7.44-1.17t-5.64-3.2q-2.33-2.02-3.59-4.73-1.25-2.71-1.25-5.81zm7.59 0q0 1.73 0.7 3.28 0.69 1.55 2.02 2.73 1.33 1.19 3.25 1.88 1.92 0.7 4.36 0.7t4.35-0.7q1.92-0.69 3.25-1.88 1.33-1.18 2.03-2.73 0.69-1.55 0.69-3.28 0-1.74-0.69-3.3-0.7-1.56-2.03-2.75-1.33-1.18-3.25-1.88-1.91-0.69-4.35-0.69t-4.36 0.69q-1.92 0.7-3.25 1.88-1.33 1.19-2.02 2.75-0.7 1.56-0.7 3.3zm35.54 0.65v-15.08h7.21v14.06q0 2 0.44 3.65 0.43 1.65 1.5 2.82 1.06 1.17 2.83 1.82t4.41 0.65q1.24 0 2.52-0.27t2.46-0.75q1.17-0.47 2.18-1.13t1.75-1.44v-19.41h7.22v28.83h-7.22v-2.47q-2.66 1.59-5.35 2.27-2.69 0.69-5.1 0.69-3.96 0-6.78-0.95-2.82-0.96-4.61-2.77-1.8-1.82-2.63-4.47t-0.83-6.05zm46.05 13.75v-23.39h-6.96v-5.42h6.96v-8.96h7.22v8.96h6.96v5.42h-6.96v23.39h-7.22zm49.8 0v-9.45l-16.68-28.71h8.77l11.74 21.7 11.6-21.7h8.76l-16.45 28.66v9.5h-7.74zm27.41-14.4q0-3.1 1.26-5.81t3.59-4.74 5.64-3.2q3.3-1.17 7.43-1.17t7.43 1.17q3.31 1.17 5.64 3.2 2.34 2.03 3.59 4.74 1.26 2.71 1.26 5.81t-1.26 5.81q-1.25 2.71-3.59 4.73-2.33 2.03-5.64 3.2-3.3 1.17-7.43 1.17t-7.43-1.17q-3.31-1.17-5.64-3.2-2.33-2.02-3.59-4.73t-1.26-5.81zm7.59 0q0 1.73 0.7 3.28 0.69 1.55 2.03 2.73 1.33 1.19 3.24 1.88 1.92 0.7 4.36 0.7t4.36-0.7q1.91-0.69 3.25-1.88 1.33-1.18 2.02-2.73 0.7-1.55 0.7-3.28 0-1.74-0.7-3.3-0.69-1.56-2.02-2.75-1.34-1.18-3.25-1.88-1.92-0.69-4.36-0.69t-4.36 0.69q-1.91 0.7-3.24 1.88-1.34 1.19-2.03 2.75-0.7 1.56-0.7 3.3zm35.55 0.65v-15.08h7.2v14.06q0 2 0.44 3.65t1.5 2.82 2.83 1.82 4.41 0.65q1.24 0 2.53-0.27 1.28-0.27 2.45-0.75 1.17-0.47 2.18-1.13 1.02-0.66 1.75-1.44v-19.41h7.23v28.83h-7.23v-2.47q-2.66 1.59-5.35 2.27-2.68 0.69-5.1 0.69-3.95 0-6.77-0.95-2.82-0.96-4.62-2.77-1.79-1.82-2.62-4.47t-0.83-6.05zm41.69 13.75v-28.81h7.23v4.15q2.39-1.78 5.05-3.07 2.67-1.3 5.3-1.98l2.13 6.61q-4.18 0.42-7.34 1.87t-5.14 4.09v17.14h-7.23zm42.58 0v-38.16h34.13v6.79h-26.39v9.98h22.41v6.38h-22.41v15.01h-7.74zm39.33-9.08q0-2.08 0.9-3.79t2.71-2.94 4.5-1.9q2.7-0.67 6.29-0.67 2.66 0 5.6 0.39 2.95 0.39 6.07 1.19-0.12-1.36-0.83-2.52t-1.97-2.01q-1.25-0.84-3.02-1.3-1.77-0.47-4.02-0.47-1.22 0-2.68 0.15-1.47 0.15-3.03 0.44t-3.09 0.73-2.84 1.05l-2.2-5.93q1.63-0.59 3.5-1.07 1.87-0.49 3.82-0.85 1.96-0.35 3.91-0.55 1.95-0.19 3.78-0.19 8.08 0 12.01 4.12 3.94 4.13 3.94 12.65v12.55h-7.23v-2.71q-1.12 0.66-2.45 1.25-1.34 0.58-2.9 1.02t-3.35 0.7q-1.8 0.25-3.8 0.25-3.37 0-5.92-0.73t-4.26-2.03q-1.71-1.29-2.58-3.04-0.86-1.74-0.86-3.79zm7.61-0.25q0 0.71 0.37 1.36t1.17 1.15q0.81 0.5 2.06 0.8 1.26 0.31 3.04 0.31 1.91 0 3.69-0.34 1.78-0.35 3.32-0.91t2.78-1.29q1.25-0.73 2.08-1.52v-1.27q-1.66-0.46-3.28-0.78-1.63-0.31-3.11-0.5-1.47-0.18-2.78-0.25-1.3-0.08-2.28-0.08-2.03 0-3.37 0.27t-2.17 0.72-1.18 1.06q-0.34 0.61-0.34 1.27zm44.95 9.33-13.65-28.83h8.37l7.5 17.33 1.95 4.86 1.95-4.86 7.5-17.33h8.37l-13.64 28.83h-8.35zm25.31-14.4q0-3.1 1.26-5.81t3.59-4.74 5.64-3.2 7.43-1.17q4.13 0 7.44 1.17 3.3 1.17 5.64 3.2 2.33 2.03 3.58 4.74 1.26 2.71 1.26 5.81t-1.26 5.81q-1.25 2.71-3.58 4.73-2.34 2.03-5.64 3.2-3.31 1.17-7.44 1.17-4.12 0-7.43-1.17t-5.64-3.2q-2.33-2.02-3.59-4.73t-1.26-5.81zm7.59 0q0 1.73 0.7 3.28t2.03 2.73q1.33 1.19 3.24 1.88 1.92 0.7 4.36 0.7t4.36-0.7q1.92-0.69 3.25-1.88 1.33-1.18 2.02-2.73 0.7-1.55 0.7-3.28 0-1.74-0.7-3.3-0.69-1.56-2.02-2.75-1.33-1.18-3.25-1.88-1.92-0.69-4.36-0.69t-4.36 0.69q-1.91 0.7-3.24 1.88-1.33 1.19-2.03 2.75t-0.7 3.3zm35.55 14.4v-28.81h7.23v4.15q2.39-1.78 5.05-3.07 2.66-1.3 5.3-1.98l2.12 6.61q-4.17 0.42-7.34 1.87-3.16 1.45-5.13 4.09v17.14h-7.23zm28.88-32.74q-1.08 0-1.94-0.3-0.87-0.31-1.48-0.83-0.61-0.53-0.94-1.23-0.33-0.69-0.33-1.47 0-0.81 0.33-1.5 0.33-0.7 0.94-1.21t1.48-0.82q0.86-0.31 1.94-0.31 1.1 0 1.96 0.31 0.87 0.31 1.48 0.82t0.94 1.21q0.33 0.69 0.33 1.5 0 0.78-0.33 1.47-0.33 0.7-0.94 1.23-0.61 0.52-1.48 0.83-0.86 0.3-1.96 0.3zm-3.61 32.74v-28.81h7.22v28.81h-7.22zm20.82 0v-23.39h-6.96v-5.42h6.96v-8.96h7.22v8.96h6.96v5.42h-6.96v23.39h-7.22zm19.23-14.5q0-2.93 1.2-5.6 1.2-2.68 3.44-4.73 2.25-2.05 5.51-3.27t7.41-1.22q4.12 0 7.43 1.23t5.62 3.38q2.3 2.15 3.54 5.06 1.23 2.9 1.23 6.22 0 0.42-0.01 0.89-0.01 0.48-0.06 0.87h-27.25q0.46 1.29 1.5 2.37 1.04 1.07 2.6 1.85t3.61 1.21q2.06 0.43 4.55 0.43t4.95-0.53q2.47-0.52 4.71-1.33l2.45 5.52q-1.42 0.66-2.87 1.16-1.46 0.5-3.03 0.83-1.58 0.33-3.3 0.5t-3.62 0.17q-4.86 0-8.52-1.17t-6.13-3.2q-2.47-2.02-3.71-4.76-1.25-2.73-1.25-5.88zm8.06-2.81h19.65q-0.39-1.2-1.21-2.23-0.81-1.04-2.03-1.81t-2.84-1.21q-1.61-0.44-3.54-0.44-2.05 0-3.73 0.47-1.69 0.46-2.96 1.24-1.26 0.78-2.11 1.81-0.84 1.02-1.23 2.17zm52.61 17.31v-38.16h7.74l13.86 13.92 13.87-13.92h7.74v38.16h-7.74v-27.44l-13.87 13.35-13.86-13.35v27.44h-7.74zm51.44-14.4q0-3.1 1.25-5.81 1.26-2.71 3.59-4.74t5.64-3.2 7.44-1.17q4.12 0 7.43 1.17t5.64 3.2 3.59 4.74 1.26 5.81-1.26 5.81-3.59 4.73q-2.33 2.03-5.64 3.2t-7.43 1.17q-4.13 0-7.44-1.17t-5.64-3.2q-2.33-2.02-3.59-4.73-1.25-2.71-1.25-5.81zm7.59 0q0 1.73 0.69 3.28 0.7 1.55 2.03 2.73 1.33 1.19 3.25 1.88 1.91 0.7 4.36 0.7 2.44 0 4.35-0.7 1.92-0.69 3.25-1.88 1.33-1.18 2.03-2.73 0.69-1.55 0.69-3.28 0-1.74-0.69-3.3-0.7-1.56-2.03-2.75-1.33-1.18-3.25-1.88-1.91-0.69-4.35-0.69-2.45 0-4.36 0.69-1.92 0.7-3.25 1.88-1.33 1.19-2.03 2.75-0.69 1.56-0.69 3.3zm45.21 14.4-13.65-28.83h8.38l7.49 17.33 1.96 4.86 1.95-4.86 7.49-17.33h8.38l-13.65 28.83h-8.35zm30.86-32.74q-1.08 0-1.94-0.3-0.87-0.31-1.48-0.83-0.61-0.53-0.94-1.23-0.33-0.69-0.33-1.47 0-0.81 0.33-1.5 0.33-0.7 0.94-1.21t1.48-0.82q0.86-0.31 1.94-0.31 1.1 0 1.96 0.31 0.87 0.31 1.48 0.82t0.94 1.21q0.33 0.69 0.33 1.5 0 0.78-0.33 1.47-0.33 0.7-0.94 1.23-0.61 0.52-1.48 0.83-0.86 0.3-1.96 0.3zm-3.62 32.74v-28.81h7.23v28.81h-7.23zm15.11-14.5q0-2.93 1.2-5.6 1.2-2.68 3.44-4.73 2.25-2.05 5.51-3.27t7.41-1.22q4.12 0 7.43 1.23t5.62 3.38q2.3 2.15 3.54 5.06 1.23 2.9 1.23 6.22 0 0.42-0.01 0.89-0.01 0.48-0.06 0.87h-27.25q0.46 1.29 1.5 2.37 1.04 1.07 2.6 1.85t3.62 1.21q2.05 0.43 4.54 0.43t4.95-0.53q2.47-0.52 4.71-1.33l2.45 5.52q-1.42 0.66-2.87 1.16-1.46 0.5-3.03 0.83t-3.3 0.5q-1.72 0.17-3.62 0.17-4.86 0-8.52-1.17t-6.13-3.2q-2.47-2.02-3.71-4.76-1.25-2.73-1.25-5.88zm8.06-2.81h19.65q-0.39-1.2-1.2-2.23-0.82-1.04-2.04-1.81t-2.84-1.21q-1.61-0.44-3.54-0.44-2.05 0-3.73 0.47-1.69 0.46-2.95 1.24-1.27 0.78-2.12 1.81-0.84 1.02-1.23 2.17zm33.1 13.94 3.13-5.47q2.93 1.76 6.44 2.59 3.52 0.83 7.21 0.83 2.49 0 4.15-0.34t2.66-0.88 1.41-1.22q0.42-0.68 0.42-1.39 0-1.03-0.89-1.76t-2.94-0.73q-0.96 0-2.06 0.12-1.09 0.12-2.3 0.26-1.21 0.13-2.52 0.25-1.3 0.12-2.65 0.12-2.93 0-4.99-0.63-2.06-0.64-3.36-1.73-1.29-1.1-1.88-2.6-0.58-1.51-0.58-3.24 0-2.2 1.02-4.05 1.03-1.86 2.93-3.21 1.91-1.36 4.61-2.11 2.69-0.76 6.01-0.76 1.74 0 3.63 0.21 1.89 0.2 3.72 0.55 1.83 0.34 3.52 0.79 1.68 0.45 2.98 0.96l-2.27 5.62q-2.76-1.03-5.51-1.62-2.75-0.6-5.65-0.6-2.03 0-3.43 0.3-1.41 0.31-2.28 0.81-0.88 0.5-1.29 1.15-0.4 0.64-0.4 1.35 0 0.51 0.21 0.93 0.21 0.41 0.68 0.72 0.48 0.3 1.25 0.46t1.89 0.16q1.03 0 2.17-0.12 1.15-0.12 2.4-0.26 1.24-0.13 2.57-0.25 1.33-0.13 2.72-0.13 2.59 0 4.53 0.61t3.21 1.71 1.91 2.59q0.63 1.49 0.63 3.25 0 2.27-1.05 4.22t-3.12 3.38q-2.08 1.43-5.17 2.24-3.09 0.8-7.14 0.8-2.49 0-4.81-0.3-2.32-0.31-4.42-0.83-2.1-0.53-3.94-1.24-1.84-0.7-3.36-1.51z" fill="#fff"/>
</svg>
</svg>
</g>
</svg>
</svg>
</g>
<svg width="103.29" height="103.29">
<svg width="103.29" height="103.29">
<path d="M30.987 103.29C13.873 103.29 0 89.417 0 72.303V30.987C0 13.873 13.873 0 30.987 0h41.316c17.114 0 30.987 13.873 30.987 30.987v41.316c0 17.114-13.873 30.987-30.987 30.987z" fill="#10557c"/>
<g transform="translate(21.082 20.658)">
<svg width="61.127" height="61.974">
<svg width="61.127" height="61.974" viewBox="11.166 10.074 78.761 79.852" xml:space="preserve"><path d="M88.064 79.066L71.396 62.4c8.845-13.048 7.494-30.943-4.064-42.502-13.1-13.099-34.336-13.099-47.435 0s-13.097 34.334 0 47.431C31.458 78.89 49.353 80.239 62.4 71.395l16.668 16.668c2.483 2.484 6.512 2.484 8.996 0s2.483-6.512 0-8.997zM61.197 61.194c-9.711 9.713-25.454 9.713-35.166 0s-9.711-25.453 0-35.163 25.454-9.711 35.167 0 9.709 25.453-.001 35.163zM50.112 33.398h-12.84c-2.388 0-4.325 1.937-4.325 4.325v12.84c0 2.388 1.937 4.324 4.325 4.324h12.84c2.388 0 4.324-1.937 4.324-4.324v-12.84c.001-2.388-1.936-4.325-4.324-4.325zm3.267-3.806h-3.086v-3.965h-2.117v3.965h-3.38v-3.965h-2.117v3.965H39.21v-3.965h-2.117v3.965h-3.086c-2.683 0-4.866 2.182-4.866 4.865v19.372c0 2.683 2.183 4.865 4.866 4.865h3.086v3.784h2.117v-3.784h3.469v3.784h2.117v-3.784h3.38v3.784h2.117v-3.784h3.086c2.682 0 4.865-2.183 4.865-4.865V34.458c0-2.684-2.183-4.866-4.865-4.866zm3.784 24.237a3.79 3.79 0 0 1-3.784 3.784H34.007a3.79 3.79 0 0 1-3.784-3.784V34.458a3.79 3.79 0 0 1 3.784-3.784h19.372a3.79 3.79 0 0 1 3.784 3.784v19.371z" fill="#fff"/></svg>
</svg>
</g>
</svg>
</svg>
</svg>
</svg>
</g>
</svg>
</g>
</svg>
