<svg xmlns="http://www.w3.org/2000/svg" version="1.1" xmlns:xlink="http://www.w3.org/1999/xlink" xmlns:svgjs="http://svgjs.dev/svgjs" width="128" height="128" viewBox="0 0 128 128"><g transform="matrix(0.8046875,0,0,0.8046875,11.345607086652748,12.760752631578953)"><svg viewBox="0 0 95 95" data-background-color="#000000" preserveAspectRatio="xMidYMid meet" height="128" width="128" xmlns="http://www.w3.org/2000/svg" xmlns:xlink="http://www.w3.org/1999/xlink"><g id="tight-bounds" transform="matrix(1,0,0,1,1.0647313278445552,-0.24049999999999727)"><svg viewBox="0 0 94.17561920704956 95.48099999999998" height="95.48099999999998" width="94.17561920704956"><g><svg viewBox="0 0 94.17561920704956 95.48099999999998" height="95.48099999999998" width="94.17561920704956"><g><svg viewBox="0 0 94.17561920704956 95.48099999999998" height="95.48099999999998" width="94.17561920704956"><g><svg viewBox="0 0 94.17561920704956 95.48099999999998" height="95.48099999999998" width="94.17561920704956"><g><svg viewBox="0 0 94.17561920704956 95.48099999999998" height="95.48099999999998" width="94.17561920704956"><g><svg viewBox="0 0 94.17561920704956 95.48099999999998" height="95.48099999999998" width="94.17561920704956"><g><svg xmlns="http://www.w3.org/2000/svg" xmlns:xlink="http://www.w3.org/1999/xlink" version="1.1" x="0" y="0" viewBox="11.165710323769897 10.073749999999997 78.76053967623008 79.85225" enable-background="new 0 0 100 100" xml:space="preserve" height="95.48099999999998" width="94.17561920704956" class="icon-icon-0" data-fill-palette-color="accent" id="icon-0"><g fill="#10557c" data-fill-palette-color="accent"><path fill="none" d="M26.032 26.031c-9.711 9.71-9.711 25.453 0 35.163 9.711 9.713 25.455 9.713 35.166 0 9.71-9.71 9.71-25.452 0.001-35.163C51.485 16.32 35.742 16.32 26.032 26.031zM58.244 53.829c0 2.683-2.184 4.865-4.865 4.865h-3.086v3.784h-2.117v-3.784h-3.38v3.784h-2.117v-3.784H39.21v3.784h-2.117v-3.784h-3.086c-2.683 0-4.866-2.183-4.866-4.865V34.458c0-2.683 2.183-4.865 4.866-4.865h3.086v-3.965h2.117v3.965h3.469v-3.965h2.117v3.965h3.38v-3.965h2.117v3.965h3.086c2.682 0 4.865 2.182 4.865 4.865V53.829z"></path><path fill="none" d="M53.379 30.673H34.007c-2.086 0-3.784 1.698-3.784 3.784v19.372c0 2.086 1.698 3.784 3.784 3.784h19.372c2.087 0 3.784-1.698 3.784-3.784V34.458C57.163 32.371 55.466 30.673 53.379 30.673zM54.437 50.563c0 2.388-1.937 4.324-4.324 4.324h-12.84c-2.388 0-4.325-1.937-4.325-4.324v-12.84c0-2.389 1.937-4.325 4.325-4.325h12.84c2.388 0 4.324 1.937 4.324 4.325V50.563z"></path><path d="M88.064 79.066L71.396 62.4c8.845-13.048 7.494-30.943-4.064-42.502-13.1-13.099-34.336-13.099-47.435 0C6.8 32.995 6.8 54.232 19.897 67.329 31.458 78.89 49.353 80.239 62.4 71.395l16.668 16.668c2.483 2.484 6.512 2.484 8.996 0C90.547 85.577 90.547 81.551 88.064 79.066zM61.197 61.194c-9.711 9.713-25.454 9.713-35.166 0-9.711-9.71-9.711-25.453 0-35.163 9.71-9.711 25.454-9.711 35.167 0C70.907 35.742 70.907 51.484 61.197 61.194z" fill="#10557c" data-fill-palette-color="accent"></path><path d="M50.112 33.398h-12.84c-2.388 0-4.325 1.937-4.325 4.325v12.84c0 2.388 1.937 4.324 4.325 4.324h12.84c2.388 0 4.324-1.937 4.324-4.324v-12.84C54.437 35.335 52.5 33.398 50.112 33.398z" fill="#10557c" data-fill-palette-color="accent"></path><path d="M53.379 29.592h-3.086v-3.965h-2.117v3.965h-3.38v-3.965h-2.117v3.965H39.21v-3.965h-2.117v3.965h-3.086c-2.683 0-4.866 2.182-4.866 4.865v19.372c0 2.683 2.183 4.865 4.866 4.865h3.086v3.784h2.117v-3.784h3.469v3.784h2.117v-3.784h3.38v3.784h2.117v-3.784h3.086c2.682 0 4.865-2.183 4.865-4.865V34.458C58.244 31.774 56.061 29.592 53.379 29.592zM57.163 53.829c0 2.086-1.697 3.784-3.784 3.784H34.007c-2.086 0-3.784-1.698-3.784-3.784V34.458c0-2.086 1.698-3.784 3.784-3.784h19.372c2.087 0 3.784 1.698 3.784 3.784V53.829z" fill="#10557c" data-fill-palette-color="accent"></path></g></svg><g></g></g></svg></g></svg></g></svg></g></svg></g></svg></g><defs></defs></svg><rect width="94.17561920704956" height="95.48099999999998" fill="none" stroke="none" visibility="hidden"></rect></g></svg></g></svg>